# 3ds Max Wavefront OBJ Exporter v0.97b - (c)2007 guruware
# File Created: 30.01.2016 21:33:02

mtllib Goblet Export.mtl

#
# object Sphere001
#

v  13.4505 17.6126 5.4020
v  15.5756 14.3059 7.2652
v  18.6892 15.2201 7.2652
v  18.6892 19.1508 5.4020
v  9.8751 13.4863 5.4020
v  13.4505 11.8534 7.2652
v  9.0981 8.0820 5.4020
v  12.9887 8.6414 7.2652
v  11.3662 3.1155 5.4020
v  14.3368 5.6896 7.2652
v  15.9593 0.1637 5.4020
v  17.0667 3.9352 7.2652
v  21.4192 0.1637 5.4020
v  20.3118 3.9352 7.2652
v  26.0123 3.1155 5.4020
v  23.0417 5.6896 7.2652
v  28.2804 8.0820 5.4020
v  24.3898 8.6414 7.2652
v  27.5034 13.4863 5.4020
v  23.9279 11.8534 7.2652
v  23.9279 17.6126 5.4020
v  21.8029 14.3059 7.2652
v  12.9887 18.3312 2.9616
v  18.6892 20.0050 2.9616
v  8.2526 7.9604 2.9616
v  9.0981 13.8411 2.9616
v  15.7187 -0.6559 2.9616
v  10.7206 2.5562 2.9616
v  21.6598 -0.6559 2.9616
v  26.6579 2.5562 2.9616
v  29.1259 7.9604 2.9616
v  28.2804 13.8411 2.9616
v  24.3898 18.3312 2.9616
v  14.3368 16.2336 0.7190
v  18.6892 17.5116 0.7190
v  11.3662 12.8053 0.7190
v  10.7206 8.3153 0.7190
v  12.6050 4.1890 0.7190
v  16.4211 1.7365 0.7190
v  20.9573 1.7365 0.7190
v  24.7734 4.1890 0.7190
v  26.6579 8.3153 0.7190
v  26.0123 12.8053 0.7190
v  23.0417 16.2336 0.7190
v  18.6892 9.4610 -0.7912
v  15.5756 14.3059 17.3987
v  18.6892 15.2201 17.3987
v  13.4505 11.8534 17.3987
v  12.9887 8.6414 17.3987
v  14.3368 5.6896 17.3987
v  17.0667 3.9352 17.3987
v  20.3118 3.9352 17.3987
v  23.0417 5.6896 17.3987
v  24.3898 8.6414 17.3987
v  23.9279 11.8534 17.3987
v  21.8029 14.3059 17.3987
v  18.6892 17.9387 18.0190
v  14.1059 16.5929 18.0190
v  14.1059 16.5929 19.1545
v  18.6892 17.9387 19.1545
v  10.9777 12.9827 18.0190
v  10.9777 12.9827 19.1545
v  10.2979 8.2544 18.0190
v  10.2979 8.2544 19.1545
v  12.2822 3.9093 18.0190
v  12.2822 3.9093 19.1545
v  16.3008 1.3267 18.0190
v  16.3008 1.3267 19.1545
v  21.0777 1.3267 18.0190
v  21.0777 1.3267 19.1545
v  25.0962 3.9093 18.0190
v  25.0962 3.9093 19.1545
v  27.0806 8.2545 18.0190
v  27.0806 8.2545 19.1545
v  26.4008 12.9827 18.0190
v  26.4008 12.9827 19.1545
v  23.2726 16.5929 18.0190
v  23.2726 16.5929 19.1545
v  18.6892 15.2201 19.7748
v  15.5756 14.3059 19.7748
v  12.4563 19.1596 24.6577
v  18.6892 20.9898 24.6577
v  13.4505 11.8534 19.7748
v  8.2023 14.2502 24.6577
v  12.9887 8.6414 19.7748
v  7.2778 7.8203 24.6577
v  14.3368 5.6896 19.7748
v  9.9764 1.9113 24.6577
v  17.0667 3.9352 19.7748
v  15.4412 -1.6008 24.6577
v  20.3118 3.9352 19.7748
v  21.9373 -1.6008 24.6577
v  23.0417 5.6896 19.7748
v  27.4021 1.9113 24.6577
v  24.3898 8.6414 19.7748
v  30.1007 7.8203 24.6577
v  23.9279 11.8534 19.7748
v  29.1762 14.2502 24.6577
v  21.8029 14.3059 19.7748
v  24.9222 19.1596 24.6577
v  5.5823 29.8557 34.3574
v  18.6892 33.7043 34.3574
v  -3.3632 19.5320 34.3574
v  -5.3073 6.0108 34.3574
v  0.3674 -6.4150 34.3574
v  11.8591 -13.8002 34.3574
v  25.5194 -13.8002 34.3574
v  37.0111 -6.4150 34.3574
v  42.6857 6.0108 34.3574
v  40.7417 19.5320 34.3574
v  31.7961 29.8557 34.3574
v  7.4386 26.9674 45.2691
v  18.6892 30.2709 45.2691
v  -0.2401 18.1057 45.2691
v  -1.9088 6.4994 45.2691
v  2.9622 -4.1666 45.2691
v  12.8264 -10.5059 45.2691
v  24.5521 -10.5059 45.2691
v  34.4163 -4.1666 45.2691
v  39.2873 6.4994 45.2691
v  37.6186 18.1057 45.2691
v  29.9399 26.9674 45.2691
v  2.4626 34.7101 53.8814
v  18.6892 39.4746 53.8814
v  -8.6121 21.9291 53.8814
v  -11.0189 5.1896 53.8814
v  -3.9935 -10.1937 53.8814
v  10.2334 -19.3369 53.8814
v  27.1451 -19.3369 53.8814
v  41.3720 -10.1937 53.8814
v  48.3974 5.1896 53.8814
v  45.9906 21.9291 53.8814
v  34.9158 34.7101 53.8814
v  2.9657 33.9273 55.1356
v  18.6892 38.5442 55.1356
v  -7.7657 21.5426 55.1356
v  -10.0979 5.3220 55.1356
v  -3.2903 -9.5844 55.1356
v  10.4956 -18.4441 55.1356
v  26.8829 -18.4441 55.1356
v  40.6688 -9.5844 55.1356
v  47.4764 5.3220 55.1356
v  45.1442 21.5426 55.1356
v  34.4128 33.9273 55.1356
v  25.3953 19.8959 43.1691
v  6.4115 7.6957 43.1691
v  9.3150 1.3381 43.1691
v  29.9723 14.6138 43.1691
v  18.6892 21.8650 43.1691
v  7.4062 14.6138 43.1691
v  15.1946 -2.4405 43.1691
v  30.9669 7.6957 43.1691
v  22.1838 -2.4405 43.1691
v  28.0635 1.3381 43.1691
v  11.9832 19.8959 43.1691
# 155 vertices

vn -0.3776 0.7896 0.4837
vn -0.4086 0.6358 0.6549
vn 0.0000 0.7557 0.6549
vn 0.0000 0.9176 0.3974
vn -0.8353 0.2614 0.4837
vn -0.6875 0.3139 0.6549
vn -0.8751 -0.0155 0.4837
vn -0.7481 -0.1076 0.6549
vn -0.5848 -0.6512 0.4837
vn -0.5712 -0.4949 0.6549
vn -0.2585 -0.8805 0.3974
vn -0.2129 -0.7251 0.6549
vn 0.2585 -0.8805 0.3974
vn 0.2129 -0.7251 0.6549
vn 0.6935 -0.6009 0.3974
vn 0.5712 -0.4949 0.6549
vn 0.9083 -0.1306 0.3974
vn 0.7481 -0.1076 0.6549
vn 0.8347 0.3812 0.3974
vn 0.6875 0.3139 0.6549
vn 0.4961 0.7720 0.3974
vn 0.4086 0.6358 0.6549
vn -0.4363 0.8696 -0.2310
vn 0.0000 0.9908 -0.1357
vn -0.9723 -0.0357 -0.2310
vn -0.9229 0.3081 -0.2310
vn -0.2791 -0.9506 -0.1357
vn -0.6637 -0.7115 -0.2310
vn 0.2791 -0.9506 -0.1357
vn 0.7488 -0.6488 -0.1357
vn 0.9807 -0.1410 -0.1357
vn 0.9012 0.4116 -0.1357
vn 0.5356 0.8335 -0.1357
vn -0.3979 0.6192 -0.6769
vn 0.0000 0.7360 -0.6769
vn -0.6695 0.3058 -0.6769
vn -0.7286 -0.1047 -0.6769
vn -0.5563 -0.4820 -0.6769
vn -0.2074 -0.7062 -0.6769
vn 0.2074 -0.7062 -0.6769
vn 0.5563 -0.4820 -0.6769
vn 0.7286 -0.1047 -0.6769
vn 0.6695 0.3058 -0.6769
vn 0.3979 0.6192 -0.6769
vn 0.0000 0.0000 -1.0000
vn -0.9011 -0.4115 0.1367
vn -0.7487 0.6487 0.1367
vn -0.2817 0.9595 -0.0000
vn -0.7557 0.6549 -0.0000
vn -0.9898 0.1423 -0.0000
vn -0.9096 -0.4154 -0.0000
vn -0.5406 -0.8413 -0.0000
vn 0.0000 -1.0000 0.0000
vn 0.5406 -0.8413 0.0000
vn 0.9096 -0.4154 0.0000
vn 0.9898 0.1423 0.0000
vn 0.7557 0.6549 0.0000
vn 0.2817 0.9595 0.0000
vn -0.2817 0.9595 0.0000
vn -0.7557 0.6549 0.0000
vn -0.9898 0.1423 0.0000
vn -0.9096 -0.4154 0.0000
vn -0.5406 -0.8413 0.0000
vn -0.2554 0.8698 -0.4222
vn -0.6851 0.5936 -0.4222
vn -0.8973 0.1290 -0.4222
vn -0.8246 -0.3766 -0.4222
vn -0.4901 -0.7626 -0.4222
vn 0.0000 -0.9065 -0.4222
vn 0.4901 -0.7626 -0.4222
vn 0.8246 -0.3766 -0.4222
vn 0.8973 0.1290 -0.4222
vn 0.6851 0.5936 -0.4222
vn 0.2554 0.8698 -0.4222
vn -0.1412 0.4807 -0.8654
vn -0.3787 0.3281 -0.8654
vn -0.4959 0.0713 -0.8654
vn -0.4558 -0.2081 -0.8654
vn -0.2709 -0.4215 -0.8654
vn 0.0000 -0.5010 -0.8654
vn 0.2709 -0.4215 -0.8654
vn 0.4558 -0.2081 -0.8654
vn 0.4959 0.0713 -0.8654
vn 0.3787 0.3281 -0.8654
vn 0.1412 0.4807 -0.8654
vn -0.1412 0.4807 0.8654
vn 0.1412 0.4807 0.8654
vn 0.3787 0.3281 0.8654
vn 0.4959 0.0713 0.8654
vn 0.4558 -0.2081 0.8654
vn 0.2709 -0.4215 0.8654
vn 0.0000 -0.5010 0.8654
vn -0.2709 -0.4215 0.8654
vn -0.4558 -0.2081 0.8654
vn -0.4959 0.0713 0.8654
vn -0.3787 0.3281 0.8654
vn -0.2503 0.8525 -0.4590
vn -0.6714 0.5818 -0.4590
vn -0.8794 0.1264 -0.4590
vn -0.8082 -0.3691 -0.4590
vn -0.4803 -0.7474 -0.4590
vn 0.0000 -0.8884 -0.4590
vn 0.4803 -0.7474 -0.4590
vn 0.8082 -0.3691 -0.4590
vn 0.8794 0.1264 -0.4590
vn 0.6714 0.5818 -0.4590
vn 0.2503 0.8525 -0.4590
vn -0.2796 0.9522 0.1231
vn -0.7500 0.6499 0.1231
vn -0.9823 0.1412 0.1231
vn -0.9027 -0.4123 0.1231
vn -0.5365 -0.8349 0.1231
vn 0.0000 -0.9924 0.1231
vn 0.5365 -0.8349 0.1231
vn 0.9027 -0.4123 0.1231
vn 0.9823 0.1412 0.1231
vn 0.7500 0.6499 0.1231
vn 0.2796 0.9522 0.1231
vn -0.2596 0.8843 -0.3882
vn -0.6965 0.6035 -0.3882
vn -0.9122 0.1312 -0.3882
vn -0.8383 -0.3828 -0.3882
vn -0.4983 -0.7753 -0.3882
vn 0.0000 -0.9216 -0.3882
vn 0.4983 -0.7753 -0.3882
vn 0.8383 -0.3828 -0.3882
vn 0.9122 0.1312 -0.3882
vn 0.6965 0.6035 -0.3882
vn 0.2596 0.8843 -0.3882
vn -0.2704 0.9209 0.2806
vn -0.7254 0.6285 0.2806
vn -0.9500 0.1366 0.2806
vn -0.8731 -0.3987 0.2806
vn -0.5189 -0.8074 0.2806
vn -0.0000 -0.9598 0.2806
vn 0.5189 -0.8074 0.2806
vn 0.8731 -0.3987 0.2806
vn 0.9500 0.1366 0.2806
vn 0.7254 0.6285 0.2806
vn 0.2704 0.9209 0.2806
vn 0.0000 0.0000 1.0000
vn 0.2469 -0.8410 0.4815
vn 0.6624 -0.5740 0.4815
vn 0.8675 -0.1247 0.4815
vn 0.7973 0.3641 0.4815
vn 0.4739 0.7373 0.4815
vn 0.0000 0.8765 0.4815
vn -0.4739 0.7373 0.4815
vn -0.7973 0.3641 0.4815
vn -0.8675 -0.1247 0.4815
vn -0.6624 -0.5740 0.4815
vn -0.2469 -0.8410 0.4815
# 152 vertex normals

vt 0.6159 0.1130 0.0360
vt 0.6161 0.1571 -0.0693
vt 0.6016 0.1571 -0.0698
vt 0.6016 0.1130 0.0358
vt 0.6302 0.1130 0.0370
vt 0.6306 0.1571 -0.0677
vt 0.6445 0.1130 0.0398
vt 0.6449 0.1571 -0.0647
vt 0.6585 0.1130 0.0439
vt 0.6588 0.1571 -0.0611
vt 0.6723 0.1130 0.0469
vt 0.6724 0.1571 -0.0587
vt 0.6860 0.1130 0.0469
vt 0.6859 0.1571 -0.0587
vt 0.6998 0.1130 0.0439
vt 0.6995 0.1571 -0.0611
vt 0.7138 0.1130 0.0398
vt 0.7135 0.1571 -0.0647
vt 0.7281 0.1130 0.0370
vt 0.7278 0.1571 -0.0677
vt 0.5873 0.1130 0.0360
vt 0.5871 0.1571 -0.0693
vt 0.5726 0.1571 -0.0677
vt 0.5730 0.1130 0.0370
vt 0.6159 0.0551 0.0588
vt 0.6016 0.0551 0.0588
vt 0.6444 0.0551 0.0626
vt 0.6302 0.0551 0.0598
vt 0.6723 0.0551 0.0698
vt 0.6585 0.0551 0.0667
vt 0.6860 0.0551 0.0698
vt 0.6998 0.0551 0.0667
vt 0.7139 0.0551 0.0626
vt 0.7282 0.0551 0.0598
vt 0.5873 0.0551 0.0588
vt 0.5730 0.0551 0.0598
vt 0.6160 0.0020 -0.0079
vt 0.6016 0.0020 -0.0082
vt 0.6303 0.0020 -0.0066
vt 0.6446 0.0020 -0.0037
vt 0.6586 0.0020 0.0001
vt 0.6724 0.0020 0.0029
vt 0.6860 0.0020 0.0029
vt 0.6997 0.0020 0.0001
vt 0.7137 0.0020 -0.0037
vt 0.7280 0.0020 -0.0066
vt 0.5873 0.0020 -0.0079
vt 0.5729 0.0020 -0.0066
vt 0.6468 0.7653 0.0000
vt 0.6692 0.8002 0.0000
vt 0.6468 0.8068 0.0000
vt 0.6845 0.7825 0.0000
vt 0.6879 0.7594 0.0000
vt 0.6782 0.7381 0.0000
vt 0.6585 0.7254 0.0000
vt 0.6351 0.7254 0.0000
vt 0.6154 0.7381 0.0000
vt 0.6057 0.7594 0.0000
vt 0.6090 0.7825 0.0000
vt 0.6243 0.8002 0.0000
vt 0.6325 0.5641 -0.0052
vt 0.6458 0.5641 -0.0051
vt 0.6458 0.7095 -0.0051
vt 0.6325 0.7095 -0.0052
vt 0.6593 0.5641 -0.0042
vt 0.6593 0.7095 -0.0042
vt 0.6726 0.5641 -0.0016
vt 0.6726 0.7095 -0.0016
vt 0.6858 0.5641 0.0022
vt 0.6858 0.7095 0.0022
vt 0.6988 0.5641 0.0052
vt 0.6988 0.7095 0.0052
vt 0.7116 0.5641 0.0052
vt 0.7116 0.7095 0.0052
vt 0.7245 0.5641 0.0022
vt 0.7245 0.7095 0.0022
vt 0.7377 0.5641 -0.0016
vt 0.7377 0.7095 -0.0016
vt 0.7511 0.5641 -0.0042
vt 0.7511 0.7095 -0.0042
vt 0.6057 0.5641 -0.0042
vt 0.6191 0.5641 -0.0051
vt 0.6191 0.7095 -0.0051
vt 0.6057 0.7095 -0.0042
vt 0.7625 0.0279 0.0256
vt 0.7717 0.0279 0.0256
vt 0.7717 0.0754 0.0256
vt 0.7625 0.0754 0.0256
vt 0.7808 0.0279 0.0262
vt 0.7808 0.0754 0.0262
vt 0.7900 0.0279 0.0280
vt 0.7900 0.0754 0.0280
vt 0.7990 0.0279 0.0306
vt 0.7990 0.0754 0.0306
vt 0.8078 0.0279 0.0326
vt 0.8078 0.0754 0.0326
vt 0.8166 0.0279 0.0326
vt 0.8166 0.0754 0.0326
vt 0.8254 0.0279 0.0306
vt 0.8254 0.0754 0.0306
vt 0.8345 0.0279 0.0280
vt 0.8345 0.0754 0.0280
vt 0.8436 0.0279 0.0262
vt 0.8436 0.0754 0.0262
vt 0.7442 0.0279 0.0262
vt 0.7534 0.0279 0.0256
vt 0.7534 0.0754 0.0256
vt 0.7442 0.0754 0.0262
vt 0.1112 0.0020 -0.4354
vt 0.1668 0.0020 -0.4323
vt 0.1634 0.0757 -0.2671
vt 0.1112 0.0757 -0.2695
vt 0.2203 0.0020 -0.4239
vt 0.2151 0.0757 -0.2600
vt 0.2706 0.0020 -0.4127
vt 0.2655 0.0757 -0.2491
vt 0.3176 0.0020 -0.4022
vt 0.3140 0.0757 -0.2376
vt 0.3623 0.0020 -0.3958
vt 0.3610 0.0757 -0.2301
vt 0.4062 0.0020 -0.3958
vt 0.4074 0.0757 -0.2301
vt 0.4509 0.0020 -0.4022
vt 0.4544 0.0757 -0.2376
vt 0.4979 0.0020 -0.4127
vt 0.5030 0.0757 -0.2491
vt 0.5482 0.0020 -0.4239
vt 0.5534 0.0757 -0.2600
vt 0.0020 0.0020 -0.4239
vt 0.0556 0.0020 -0.4323
vt 0.0589 0.0757 -0.2671
vt 0.0072 0.0757 -0.2600
vt 0.7625 0.0020 -0.0326
vt 0.7717 0.0020 -0.0324
vt 0.7810 0.0020 -0.0315
vt 0.7901 0.0020 -0.0296
vt 0.7991 0.0020 -0.0272
vt 0.8079 0.0020 -0.0255
vt 0.8166 0.0020 -0.0255
vt 0.8253 0.0020 -0.0272
vt 0.8343 0.0020 -0.0296
vt 0.8435 0.0020 -0.0315
vt 0.7441 0.0020 -0.0315
vt 0.7533 0.0020 -0.0324
vt 0.7717 0.1014 -0.0324
vt 0.7625 0.1014 -0.0326
vt 0.7533 0.1014 -0.0324
vt 0.7441 0.1014 -0.0315
vt 0.8435 0.1014 -0.0315
vt 0.8343 0.1014 -0.0296
vt 0.8253 0.1014 -0.0272
vt 0.8166 0.1014 -0.0255
vt 0.8079 0.1014 -0.0255
vt 0.7991 0.1014 -0.0272
vt 0.7901 0.1014 -0.0296
vt 0.7810 0.1014 -0.0315
vt 0.1618 0.2220 0.0972
vt 0.1112 0.2220 0.0961
vt 0.2125 0.2220 0.1022
vt 0.2627 0.2220 0.1125
vt 0.3121 0.2220 0.1257
vt 0.3603 0.2220 0.1351
vt 0.4081 0.2220 0.1351
vt 0.4564 0.2220 0.1257
vt 0.5057 0.2220 0.1125
vt 0.5560 0.2220 0.1022
vt 0.0605 0.2220 0.0972
vt 0.0099 0.2220 0.1022
vt 0.1620 0.3866 -0.0012
vt 0.1112 0.3866 -0.0027
vt 0.2128 0.3866 0.0043
vt 0.2632 0.3866 0.0148
vt 0.3124 0.3866 0.0276
vt 0.3604 0.3866 0.0365
vt 0.4080 0.3866 0.0365
vt 0.4561 0.3866 0.0276
vt 0.5053 0.3866 0.0148
vt 0.5556 0.3866 0.0043
vt 0.0603 0.3866 -0.0012
vt 0.0095 0.3866 0.0043
vt 0.1614 0.5482 0.3968
vt 0.1112 0.5482 0.3965
vt 0.2117 0.5482 0.4001
vt 0.2620 0.5482 0.4099
vt 0.3115 0.5482 0.4244
vt 0.3601 0.5482 0.4354
vt 0.4083 0.5482 0.4354
vt 0.4570 0.5482 0.4244
vt 0.5065 0.5482 0.4099
vt 0.5567 0.5482 0.4001
vt 0.0609 0.5482 0.3968
vt 0.0106 0.5482 0.4001
vt 0.1541 0.7133 0.0000
vt 0.1139 0.7672 0.0000
vt 0.0276 0.7227 0.0000
vt 0.0869 0.6433 0.0000
vt 0.2044 0.6803 0.0000
vt 0.1608 0.5942 0.0000
vt 0.2685 0.6602 0.0000
vt 0.2550 0.5641 0.0000
vt 0.3286 0.6628 0.0000
vt 0.3436 0.5676 0.0000
vt 0.3923 0.6840 0.0000
vt 0.4375 0.5983 0.0000
vt 0.4394 0.7213 0.0000
vt 0.5072 0.6529 0.0000
vt 0.4786 0.7755 0.0000
vt 0.5652 0.7326 0.0000
vt 0.4949 0.8332 0.0000
vt 0.5895 0.8175 0.0000
vt 0.4949 0.8997 0.0000
vt 0.5898 0.9155 0.0000
vt 0.4746 0.9557 0.0000
vt 0.5598 0.9980 0.0000
vt 0.0965 0.8249 0.0000
vt 0.0020 0.8076 0.0000
vt 0.5999 0.1827 0.0000
vt 0.6930 0.2425 0.0000
vt 0.6787 0.2736 0.0000
vt 0.5775 0.2086 0.0000
vt 0.6328 0.1730 0.0000
vt 0.6881 0.2086 0.0000
vt 0.6499 0.2922 0.0000
vt 0.5726 0.2425 0.0000
vt 0.6157 0.2922 0.0000
vt 0.5869 0.2736 0.0000
vt 0.6657 0.1827 0.0000
vt 0.2213 0.7834 0.0000
vt 0.2002 0.8118 0.0000
vt 0.2481 0.7665 0.0000
vt 0.2821 0.7563 0.0000
vt 0.3136 0.7581 0.0000
vt 0.3471 0.7697 0.0000
vt 0.3717 0.7896 0.0000
vt 0.3920 0.8185 0.0000
vt 0.4004 0.8489 0.0000
vt 0.4001 0.8840 0.0000
vt 0.3894 0.9135 0.0000
vt 0.1910 0.8421 0.0000
# 239 texture coords

g Sphere001
usemtl Material__43
s 1
f 1/1/1 2/2/2 3/3/3 4/4/4 
f 5/5/5 6/6/6 2/2/2 1/1/1 
f 7/7/7 8/8/8 6/6/6 5/5/5 
f 9/9/9 10/10/10 8/8/8 7/7/7 
f 11/11/11 12/12/12 10/10/10 9/9/9 
f 13/13/13 14/14/14 12/12/12 11/11/11 
f 15/15/15 16/16/16 14/14/14 13/13/13 
f 17/17/17 18/18/18 16/16/16 15/15/15 
f 19/19/19 20/20/20 18/18/18 17/17/17 
f 21/21/21 22/22/22 20/23/20 19/24/19 
f 4/4/4 3/3/3 22/22/22 21/21/21 
f 23/25/23 1/1/1 4/4/4 24/26/24 
f 25/27/25 7/7/7 5/5/5 26/28/26 
f 27/29/27 11/11/11 9/9/9 28/30/28 
f 29/31/29 13/13/13 11/11/11 27/29/27 
f 30/32/30 15/15/15 13/13/13 29/31/29 
f 31/33/31 17/17/17 15/15/15 30/32/30 
f 32/34/32 19/19/19 17/17/17 31/33/31 
f 33/35/33 21/21/21 19/24/19 32/36/32 
f 24/26/24 4/4/4 21/21/21 33/35/33 
f 34/37/34 23/25/23 24/26/24 35/38/35 
f 36/39/36 26/28/26 23/25/23 34/37/34 
f 37/40/37 25/27/25 26/28/26 36/39/36 
f 38/41/38 28/30/28 25/27/25 37/40/37 
f 39/42/39 27/29/27 28/30/28 38/41/38 
f 40/43/40 29/31/29 27/29/27 39/42/39 
f 41/44/41 30/32/30 29/31/29 40/43/40 
f 42/45/42 31/33/31 30/32/30 41/44/41 
f 43/46/43 32/34/32 31/33/31 42/45/42 
f 44/47/44 33/35/33 32/36/32 43/48/43 
f 35/38/35 24/26/24 33/35/33 44/47/44 
f 45/49/45 34/50/34 35/51/35 
f 45/49/45 36/52/36 34/50/34 
f 45/49/45 37/53/37 36/52/36 
f 45/49/45 38/54/38 37/53/37 
f 45/49/45 39/55/39 38/54/38 
f 45/49/45 40/56/40 39/55/39 
f 45/49/45 41/57/41 40/56/40 
f 45/49/45 42/58/42 41/57/41 
f 45/49/45 43/59/43 42/58/42 
f 45/49/45 44/60/44 43/59/43 
f 45/49/45 35/51/35 44/60/44 
s off
f 25/27/46 28/30/46 9/9/46 7/7/46 
f 23/25/47 26/28/47 5/5/47 1/1/47 
f 3/61/48 2/62/48 46/63/48 47/64/48 
f 2/62/49 6/65/49 48/66/49 46/63/49 
f 6/65/50 8/67/50 49/68/50 48/66/50 
f 8/67/51 10/69/51 50/70/51 49/68/51 
f 10/69/52 12/71/52 51/72/52 50/70/52 
f 12/71/53 14/73/53 52/74/53 51/72/53 
f 14/73/54 16/75/54 53/76/54 52/74/54 
f 16/75/55 18/77/55 54/78/55 53/76/55 
f 18/77/56 20/79/56 55/80/56 54/78/56 
f 20/81/57 22/82/57 56/83/57 55/84/57 
f 22/82/58 3/61/58 47/64/58 56/83/58 
f 57/85/59 58/86/59 59/87/59 60/88/59 
f 58/86/60 61/89/60 62/90/60 59/87/60 
f 61/89/61 63/91/61 64/92/61 62/90/61 
f 63/91/62 65/93/62 66/94/62 64/92/62 
f 65/93/63 67/95/63 68/96/63 66/94/63 
f 67/95/53 69/97/53 70/98/53 68/96/53 
f 69/97/54 71/99/54 72/100/54 70/98/54 
f 71/99/55 73/101/55 74/102/55 72/100/55 
f 73/101/56 75/103/56 76/104/56 74/102/56 
f 75/105/57 77/106/57 78/107/57 76/108/57 
f 77/106/58 57/85/58 60/88/58 78/107/58 
f 79/109/64 80/110/64 81/111/64 82/112/64 
f 80/110/65 83/113/65 84/114/65 81/111/65 
f 83/113/66 85/115/66 86/116/66 84/114/66 
f 85/115/67 87/117/67 88/118/67 86/116/67 
f 87/117/68 89/119/68 90/120/68 88/118/68 
f 89/119/69 91/121/69 92/122/69 90/120/69 
f 91/121/70 93/123/70 94/124/70 92/122/70 
f 93/123/71 95/125/71 96/126/71 94/124/71 
f 95/125/72 97/127/72 98/128/72 96/126/72 
f 97/129/73 99/130/73 100/131/73 98/132/73 
f 99/130/74 79/109/74 82/112/74 100/131/74 
f 47/133/75 46/134/75 58/86/75 57/85/75 
f 46/134/76 48/135/76 61/89/76 58/86/76 
f 48/135/77 49/136/77 63/91/77 61/89/77 
f 49/136/78 50/137/78 65/93/78 63/91/78 
f 50/137/79 51/138/79 67/95/79 65/93/79 
f 51/138/80 52/139/80 69/97/80 67/95/80 
f 52/139/81 53/140/81 71/99/81 69/97/81 
f 53/140/82 54/141/82 73/101/82 71/99/82 
f 54/141/83 55/142/83 75/103/83 73/101/83 
f 55/143/84 56/144/84 77/106/84 75/105/84 
f 56/144/85 47/133/85 57/85/85 77/106/85 
f 80/145/86 79/146/86 60/88/86 59/87/86 
f 79/146/87 99/147/87 78/107/87 60/88/87 
f 99/147/88 97/148/88 76/108/88 78/107/88 
f 97/149/89 95/150/89 74/102/89 76/104/89 
f 95/150/90 93/151/90 72/100/90 74/102/90 
f 93/151/91 91/152/91 70/98/91 72/100/91 
f 91/152/92 89/153/92 68/96/92 70/98/92 
f 89/153/93 87/154/93 66/94/93 68/96/93 
f 87/154/94 85/155/94 64/92/94 66/94/94 
f 85/155/95 83/156/95 62/90/95 64/92/95 
f 83/156/96 80/145/96 59/87/96 62/90/96 
f 82/112/97 81/111/97 101/157/97 102/158/97 
f 81/111/98 84/114/98 103/159/98 101/157/98 
f 84/114/99 86/116/99 104/160/99 103/159/99 
f 86/116/100 88/118/100 105/161/100 104/160/100 
f 88/118/101 90/120/101 106/162/101 105/161/101 
f 90/120/102 92/122/102 107/163/102 106/162/102 
f 92/122/103 94/124/103 108/164/103 107/163/103 
f 94/124/104 96/126/104 109/165/104 108/164/104 
f 96/126/105 98/128/105 110/166/105 109/165/105 
f 98/132/106 100/131/106 111/167/106 110/168/106 
f 100/131/107 82/112/107 102/158/107 111/167/107 
f 102/158/108 101/157/108 112/169/108 113/170/108 
f 101/157/109 103/159/109 114/171/109 112/169/109 
f 103/159/110 104/160/110 115/172/110 114/171/110 
f 104/160/111 105/161/111 116/173/111 115/172/111 
f 105/161/112 106/162/112 117/174/112 116/173/112 
f 106/162/113 107/163/113 118/175/113 117/174/113 
f 107/163/114 108/164/114 119/176/114 118/175/114 
f 108/164/115 109/165/115 120/177/115 119/176/115 
f 109/165/116 110/166/116 121/178/116 120/177/116 
f 110/168/117 111/167/117 122/179/117 121/180/117 
f 111/167/118 102/158/118 113/170/118 122/179/118 
f 112/169/119 123/181/119 124/182/119 113/170/119 
f 114/171/120 125/183/120 123/181/120 112/169/120 
f 115/172/121 126/184/121 125/183/121 114/171/121 
f 116/173/122 127/185/122 126/184/122 115/172/122 
f 117/174/123 128/186/123 127/185/123 116/173/123 
f 118/175/124 129/187/124 128/186/124 117/174/124 
f 119/176/125 130/188/125 129/187/125 118/175/125 
f 120/177/126 131/189/126 130/188/126 119/176/126 
f 121/178/127 132/190/127 131/189/127 120/177/127 
f 122/179/128 133/191/128 132/192/128 121/180/128 
f 113/170/129 124/182/129 133/191/129 122/179/129 
f 134/193/130 135/194/130 124/195/130 123/196/130 
f 136/197/131 134/193/131 123/196/131 125/198/131 
f 137/199/132 136/197/132 125/198/132 126/200/132 
f 138/201/133 137/199/133 126/200/133 127/202/133 
f 139/203/134 138/201/134 127/202/134 128/204/134 
f 140/205/135 139/203/135 128/204/135 129/206/135 
f 141/207/136 140/205/136 129/206/136 130/208/136 
f 142/209/137 141/207/137 130/208/137 131/210/137 
f 143/211/138 142/209/138 131/210/138 132/212/138 
f 144/213/139 143/211/139 132/212/139 133/214/139 
f 135/194/140 144/215/140 133/216/140 124/195/140 
s 1
f 145/217/141 146/218/141 147/219/141 148/220/141 
s 2
f 149/221/141 150/222/141 146/218/141 145/217/141 
f 148/220/141 147/219/141 151/223/141 152/224/141 
s 1
f 152/224/141 151/223/141 153/225/141 154/226/141 
s off
f 155/227/141 150/222/141 149/221/141 
f 155/228/142 149/229/142 135/194/142 134/193/142 
f 150/230/143 155/228/143 134/193/143 136/197/143 
f 146/231/144 150/230/144 136/197/144 137/199/144 
f 147/232/145 146/231/145 137/199/145 138/201/145 
f 151/233/146 147/232/146 138/201/146 139/203/146 
f 153/234/147 151/233/147 139/203/147 140/205/147 
f 154/235/148 153/234/148 140/205/148 141/207/148 
f 152/236/149 154/235/149 141/207/149 142/209/149 
f 148/237/150 152/236/150 142/209/150 143/211/150 
f 145/238/151 148/237/151 143/211/151 144/213/151 
f 149/229/152 145/239/152 144/215/152 135/194/152 
# 147 polygons - 12 triangles

