# 3ds Max Wavefront OBJ Exporter v0.97b - (c)2007 guruware
# File Created: 31.01.2016 04:38:26

mtllib Skull Export.mtl

#
# object Box003
#

v  -17.9111 -17.8488 2.1316
v  -19.2210 -13.0136 0.8217
v  -10.0427 -13.8353 -2.4202
v  -10.0427 -19.9804 0.6403
v  -7.6611 -15.1829 -5.7453
v  -7.6477 -11.9859 -8.5098
v  -3.2839 -11.6136 -5.8627
v  -3.9909 -14.2171 -4.6639
v  -17.9111 -17.8488 17.8684
v  -10.0427 -19.9804 19.3597
v  -10.0427 -13.8353 22.4202
v  -19.2210 -13.0136 19.1783
v  -2.1742 -17.8488 17.8684
v  -0.8644 -13.0136 19.1783
v  -10.0427 -21.0962 5.1374
v  -18.9353 -18.8730 5.9121
v  -2.1742 -17.8488 2.1316
v  -1.0191 -18.0444 6.6042
v  -10.0427 -35.6530 30.5576
v  -10.0427 -35.3592 30.9515
v  -10.9970 -34.8790 29.7461
v  -11.0190 -34.9912 29.6519
v  -9.0663 -34.9912 29.6519
v  -9.0884 -34.8790 29.7461
v  -0.8644 -13.0136 0.8217
v  0.4208 -13.4084 5.2316
v  0.0541 -13.3403 10.0200
v  -0.5335 -12.9452 12.2859
v  -1.4814 -16.5488 11.4600
v  -1.0978 -17.5849 10.0196
v  -21.1869 -13.4084 5.2316
v  -22.5994 -9.9804 4.8047
v  -20.0427 -9.9804 0.0000
v  -23.3126 -13.8353 10.0000
v  -21.4557 -13.4624 14.1654
v  -22.9490 -9.9804 14.5383
v  -25.3639 -9.9804 10.0000
v  -0.0427 -10.6875 0.0000
v  -2.8404 -9.9804 -6.6146
v  -10.0427 -34.9258 31.5803
v  -10.8946 -34.3619 30.3401
v  -9.1908 -34.3619 30.3401
v  1.2340 -10.7704 13.6602
v  -0.0427 -9.9804 20.0000
v  0.5965 -13.4624 14.1654
v  -19.0753 -19.0130 13.5709
v  -14.7954 -19.4323 17.0424
v  -10.0427 -21.4044 18.4043
v  -15.4585 -20.4320 13.3999
v  -20.0427 -19.9804 10.0000
v  -15.9057 -21.1223 10.9680
v  -10.0427 -22.3026 10.0000
v  -10.0427 -23.1516 10.9664
v  -1.6801 -19.9804 10.0000
v  -4.1797 -21.1223 10.9680
v  -0.9045 -18.1589 12.8689
v  -4.6268 -20.4320 13.3999
v  -5.2900 -19.4323 17.0424
v  -12.8716 -28.1902 22.1936
v  -10.0427 -29.2452 23.9410
v  -13.2115 -29.9074 20.2195
v  -13.2870 -30.3018 19.8809
v  -10.0427 -31.6871 20.5223
v  -6.7984 -30.3018 19.8809
v  -6.8739 -29.9074 20.2195
v  -7.2137 -28.1902 22.1936
v  0.6634 -11.4146 10.0204
v  -0.7010 -12.8596 7.1478
v  -0.3133 -11.9365 7.4680
v  -10.0427 -10.6875 -4.3402
v  -7.6393 -9.9804 -10.2440
v  -10.0427 -9.9804 24.3402
v  -20.0427 -9.9804 20.0000
v  1.0720 -10.7704 5.6983
v  -0.1572 -11.9371 11.9504
v  -1.6000 -16.4293 8.0259
v  -1.3298 -18.6766 9.9998
v  -1.2958 -17.3424 12.1558
v  -1.4118 -17.2256 7.3071
v  -0.2661 -13.1200 6.1803
v  0.2781 -11.3425 6.5749
v  2.9729 -9.6939 10.0000
v  1.6952 -10.6843 10.0002
v  0.4370 -11.3428 12.7972
v  -0.0949 -13.1896 13.2149
v  -20.0427 -7.5004 0.0000
v  -10.0427 -6.7934 -4.3402
v  -22.5994 -7.5004 4.8047
v  -25.3639 -7.5004 10.0000
v  -22.9490 -7.5004 14.5383
v  -20.0427 -7.5004 20.0000
v  -10.0427 -7.5004 24.3402
v  -0.0427 -7.5004 20.0000
v  1.2340 -6.7104 13.6602
v  2.9729 -7.7869 10.0000
v  1.0720 -6.7104 5.6983
v  -0.0427 -6.7934 0.0000
v  -17.9111 0.3680 2.1316
v  -10.0427 2.4996 0.6403
v  -10.0427 -3.6455 -2.4202
v  -19.2210 -4.4672 0.8217
v  -7.6611 -2.2979 -5.7453
v  -3.9909 -3.2637 -4.6639
v  -3.2839 -5.8672 -5.8627
v  -7.6477 -5.4949 -8.5098
v  -17.9111 0.3680 17.8684
v  -19.2210 -4.4672 19.1783
v  -10.0427 -3.6455 22.4202
v  -10.0427 2.4996 19.3597
v  -2.1742 0.3680 17.8684
v  -0.8644 -4.4672 19.1783
v  -18.9353 1.3922 5.9121
v  -10.0427 3.6153 5.1374
v  -2.1742 0.3680 2.1316
v  -1.0191 0.5636 6.6042
v  -10.0427 18.1722 30.5576
v  -11.0190 17.5104 29.6519
v  -10.9970 17.3981 29.7461
v  -10.0427 17.8784 30.9515
v  -9.0884 17.3981 29.7461
v  -9.0663 17.5104 29.6519
v  0.4208 -4.0724 5.2316
v  -0.8644 -4.4672 0.8217
v  0.0541 -4.1405 10.0200
v  -1.0978 0.1041 10.0196
v  -1.4814 -0.9320 11.4600
v  -0.5335 -4.5356 12.2859
v  -21.1869 -4.0724 5.2316
v  -23.3126 -3.6455 10.0000
v  -21.4557 -4.0184 14.1654
v  -2.8404 -7.5004 -6.6146
v  -10.8946 16.8811 30.3401
v  -10.0427 17.4450 31.5803
v  -9.1908 16.8811 30.3401
v  0.5965 -4.0184 14.1654
v  -19.0753 1.5322 13.5709
v  -10.0427 3.9236 18.4043
v  -14.7954 1.9515 17.0424
v  -15.4585 2.9512 13.3999
v  -15.9057 3.6414 10.9680
v  -20.0427 2.4996 10.0000
v  -10.0427 5.6708 10.9664
v  -10.0427 4.8218 10.0000
v  -4.1797 3.6414 10.9680
v  -1.6801 2.4996 10.0000
v  -4.6268 2.9512 13.3999
v  -0.9045 0.6781 12.8689
v  -5.2900 1.9515 17.0424
v  -10.0427 11.7644 23.9410
v  -12.8716 10.7093 22.1936
v  -13.2115 12.4266 20.2195
v  -13.2870 12.8210 19.8809
v  -10.0427 14.2063 20.5223
v  -6.7984 12.8210 19.8809
v  -6.8739 12.4266 20.2195
v  -7.2137 10.7093 22.1936
v  0.6634 -6.0662 10.0204
v  -0.3133 -5.5443 7.4680
v  -0.7010 -4.6212 7.1478
v  -7.6393 -7.5004 -10.2440
v  -0.1572 -5.5437 11.9504
v  -1.6000 -1.0515 8.0259
v  -1.2958 -0.1384 12.1558
v  -1.3882 1.0256 9.9998
v  -1.4118 -0.2552 7.3071
v  -0.2661 -4.3608 6.1803
v  0.2781 -6.1383 6.5749
v  1.6952 -6.7965 10.0002
v  0.4370 -6.1380 12.7972
v  -0.0949 -4.2912 13.2149
# 170 vertices

vn -0.5386 -0.6128 -0.5782
vn -0.6257 -0.3630 -0.6905
vn -0.6191 -0.3732 -0.6910
vn -0.0837 -0.8460 -0.5266
vn -0.2239 -0.6783 -0.6999
vn -0.2582 -0.6167 -0.7436
vn 0.6622 -0.4699 -0.5838
vn 0.5735 -0.5664 -0.5918
vn -0.5547 -0.5873 0.5894
vn -0.0340 -0.5264 0.8496
vn 0.0064 -0.4260 0.9047
vn -0.6311 -0.3692 0.6822
vn 0.6000 -0.6031 0.5256
vn 0.6947 -0.3458 0.6307
vn 0.0292 -0.9706 -0.2389
vn -0.5873 -0.7262 -0.3573
vn 0.6347 -0.6974 -0.3329
vn 0.5549 -0.7840 -0.2781
vn -0.0006 -0.9620 0.2729
vn 0.0000 -0.7883 0.6152
vn -0.9070 -0.1975 0.3719
vn -0.7850 -0.6165 0.0603
vn 0.7884 -0.6115 0.0676
vn 0.9071 -0.1975 0.3718
vn 0.8774 -0.3563 -0.3213
vn 0.9230 -0.2624 -0.2815
vn 0.9536 -0.3011 0.0006
vn 0.9476 -0.2895 -0.1350
vn 0.9964 -0.0838 0.0124
vn 0.9799 -0.1847 -0.0752
vn -0.8333 -0.3840 -0.3976
vn -0.8696 -0.1993 -0.4517
vn -0.6650 -0.1803 -0.7247
vn -0.8927 -0.4507 0.0002
vn -0.8311 -0.3898 0.3966
vn -0.8690 -0.2020 0.4517
vn -0.9740 -0.2266 -0.0000
vn 0.8769 -0.0938 -0.4715
vn 0.6591 0.5242 -0.5392
vn -0.0065 -0.1379 0.9904
vn -0.7812 0.2528 0.5708
vn 0.8139 0.1783 0.5529
vn 0.9518 -0.0768 0.2968
vn 0.7547 -0.1724 0.6330
vn 0.9244 -0.2575 0.2812
vn -0.6219 -0.6940 0.3627
vn -0.3448 -0.8419 0.4152
vn -0.0549 -0.5975 0.8000
vn -0.3398 -0.8855 0.3170
vn -0.6372 -0.7706 -0.0162
vn -0.3201 -0.9015 0.2912
vn 0.0422 -0.8712 -0.4891
vn 0.0330 -0.7698 -0.6374
vn 0.3930 -0.9126 -0.1130
vn 0.3765 -0.9172 -0.1303
vn 0.6695 -0.6830 0.2921
vn 0.5195 -0.7906 0.3242
vn 0.4363 -0.8810 0.1828
vn -0.0442 0.5452 0.8371
vn -0.8360 0.1359 0.5316
vn -0.7535 0.3077 0.5810
vn -0.0180 0.7249 0.6886
vn -0.9757 -0.0829 0.2029
vn -0.9720 -0.0397 0.2317
vn -0.7781 -0.5428 -0.3161
vn -0.7710 -0.5777 -0.2681
vn -0.0071 -0.7404 -0.6721
vn -0.0036 -0.8682 -0.4962
vn 0.7823 -0.5352 -0.3188
vn 0.7779 -0.5750 -0.2536
vn 0.9749 -0.0867 0.2050
vn 0.9731 -0.0362 0.2275
vn 0.8454 0.1473 0.5134
vn 0.7874 0.2440 0.5661
vn 0.7590 -0.6508 -0.0195
vn 0.9311 -0.3326 0.1499
vn 0.8606 -0.5092 -0.0086
vn -0.4715 0.0577 -0.8800
vn -0.1994 0.3488 -0.9157
vn 0.0047 -0.2129 0.9771
vn -0.6688 -0.1753 0.7224
vn 0.9558 -0.0810 -0.2826
vn 0.8646 -0.4999 0.0501
vn 0.9928 -0.1198 0.0049
vn 0.9309 0.0272 -0.3642
vn 0.9779 -0.1972 -0.0690
vn 0.9756 -0.1869 -0.1153
vn 0.9505 0.0518 -0.3064
vn 0.9007 0.0701 0.4287
vn 0.9418 0.0244 0.3353
vn 0.7763 -0.1988 0.5983
vn 0.8114 -0.2389 0.5335
vn 0.7336 -0.6396 0.2298
vn 0.7540 -0.6158 0.2287
vn 0.6058 -0.7956 -0.0026
vn 0.6000 -0.8000 0.0003
vn 0.7155 -0.6507 -0.2542
vn 0.7551 -0.6183 -0.2180
vn 0.7714 -0.1837 -0.6092
vn 0.8145 -0.2111 -0.5404
vn -0.6650 0.1803 -0.7247
vn -0.4715 -0.0577 -0.8800
vn -0.8696 0.1993 -0.4517
vn -0.9740 0.2266 -0.0000
vn -0.8690 0.2020 0.4517
vn -0.6688 0.1753 0.7224
vn 0.0047 0.2129 0.9771
vn 0.7547 0.1724 0.6330
vn 0.9518 0.0768 0.2968
vn 0.9998 0.0000 0.0181
vn 0.9558 0.0810 -0.2826
vn 0.8769 0.0938 -0.4715
vn -0.5386 0.6128 -0.5782
vn -0.0837 0.8460 -0.5266
vn -0.6191 0.3732 -0.6910
vn -0.6257 0.3630 -0.6905
vn -0.2239 0.6783 -0.6999
vn 0.5735 0.5664 -0.5918
vn 0.6622 0.4699 -0.5838
vn -0.2582 0.6167 -0.7436
vn -0.5547 0.5873 0.5894
vn -0.6311 0.3692 0.6822
vn 0.0064 0.4260 0.9047
vn -0.0340 0.5264 0.8496
vn 0.6000 0.6031 0.5256
vn 0.6947 0.3458 0.6307
vn -0.5873 0.7262 -0.3573
vn 0.0292 0.9706 -0.2389
vn 0.6347 0.6974 -0.3329
vn 0.5549 0.7840 -0.2781
vn -0.0006 0.9620 0.2729
vn -0.7850 0.6165 0.0603
vn -0.9070 0.1975 0.3719
vn 0.0000 0.7883 0.6152
vn 0.9071 0.1975 0.3718
vn 0.7884 0.6115 0.0676
vn 0.9230 0.2624 -0.2815
vn 0.8774 0.3563 -0.3213
vn 0.9536 0.3011 0.0006
vn 0.9675 0.2384 -0.0846
vn 0.9964 0.0838 0.0124
vn 0.9476 0.2895 -0.1350
vn -0.8333 0.3840 -0.3976
vn -0.8927 0.4507 0.0002
vn -0.8311 0.3898 0.3966
vn 0.6591 -0.5242 -0.5392
vn -0.7812 -0.2528 0.5708
vn -0.0065 0.1379 0.9904
vn 0.8139 -0.1783 0.5529
vn 0.9244 0.2575 0.2812
vn -0.6219 0.6940 0.3627
vn -0.0549 0.5975 0.8000
vn -0.3448 0.8419 0.4152
vn -0.3398 0.8855 0.3170
vn -0.3201 0.9015 0.2912
vn -0.6372 0.7706 -0.0162
vn 0.0330 0.7698 -0.6374
vn 0.0422 0.8712 -0.4891
vn 0.3765 0.9172 -0.1303
vn 0.3930 0.9126 -0.1130
vn 0.5195 0.7906 0.3242
vn 0.6695 0.6830 0.2921
vn 0.4363 0.8810 0.1828
vn -0.0442 -0.5452 0.8371
vn -0.0180 -0.7249 0.6886
vn -0.7535 -0.3077 0.5810
vn -0.8360 -0.1359 0.5316
vn -0.9720 0.0397 0.2317
vn -0.9757 0.0829 0.2029
vn -0.7710 0.5777 -0.2681
vn -0.7781 0.5428 -0.3161
vn -0.0036 0.8682 -0.4962
vn -0.0071 0.7404 -0.6721
vn 0.7779 0.5750 -0.2536
vn 0.7823 0.5352 -0.3188
vn 0.9731 0.0362 0.2275
vn 0.9749 0.0867 0.2050
vn 0.7874 -0.2440 0.5661
vn 0.8454 -0.1473 0.5134
vn 0.7590 0.6508 -0.0195
vn 0.8606 0.5092 -0.0086
vn 0.9311 0.3326 0.1499
vn -0.1994 -0.3488 -0.9157
vn 0.8646 0.4999 0.0501
vn 0.9923 0.1236 0.0068
vn 0.9287 -0.0258 -0.3700
vn 0.9497 -0.0498 -0.3092
vn 0.9784 0.1752 -0.1098
vn 0.9880 0.1400 -0.0645
vn 0.9406 -0.0234 0.3387
vn 0.9007 -0.0701 0.4287
vn 0.8114 0.2389 0.5335
vn 0.7763 0.1988 0.5983
vn 0.7540 0.6158 0.2287
vn 0.7336 0.6396 0.2298
vn 0.6000 0.8000 0.0003
vn 0.6058 0.7956 -0.0026
vn 0.7551 0.6183 -0.2180
vn 0.7155 0.6507 -0.2542
vn 0.8145 0.2111 -0.5404
vn 0.7714 0.1837 -0.6092
# 201 vertex normals

vt 0.3512 0.2150 0.0000
vt 0.2976 0.2077 0.0000
vt 0.3314 0.0963 0.0000
vt 0.4167 0.1274 0.0000
vt 0.6602 0.0884 0.0000
vt 0.7004 0.0364 0.0000
vt 0.7450 0.1025 0.0000
vt 0.7063 0.1226 0.0000
vt 0.3572 0.3981 0.0000
vt 0.4079 0.4839 0.0000
vt 0.3265 0.5138 0.0000
vt 0.2999 0.4039 0.0000
vt 0.6683 0.4058 0.0000
vt 0.7182 0.4146 0.0000
vt 0.6837 0.5087 0.0000
vt 0.6167 0.4754 0.0000
vt 0.4615 0.1898 0.0000
vt 0.3635 0.2564 0.0000
vt 0.6736 0.2218 0.0000
vt 0.6722 0.2794 0.0000
vt 0.5550 0.2288 0.0000
vt 0.5773 0.1682 0.0000
vt 0.2702 0.7557 0.0000
vt 0.2804 0.7560 0.0000
vt 0.2654 0.7865 0.0000
vt 0.2623 0.7865 0.0000
vt 0.2649 0.7190 0.0000
vt 0.2679 0.7188 0.0000
vt 0.7382 0.2061 0.0000
vt 0.7332 0.2638 0.0000
vt 0.9230 0.6082 0.0000
vt 0.9252 0.6354 0.0000
vt 0.8831 0.6263 0.0000
vt 0.8719 0.6091 0.0000
vt 0.3018 0.2556 0.0000
vt 0.2668 0.2566 0.0000
vt 0.2665 0.2070 0.0000
vt 0.3009 0.3052 0.0000
vt 0.3040 0.3485 0.0000
vt 0.2671 0.3475 0.0000
vt 0.2641 0.3055 0.0000
vt 0.2908 0.0174 0.0000
vt 0.3400 0.0411 0.0000
vt 0.7738 0.1997 0.0000
vt 0.7707 0.0897 0.0000
vt 0.2965 0.7559 0.0000
vt 0.2821 0.7864 0.0000
vt 0.2846 0.7186 0.0000
vt 0.7457 0.3599 0.0000
vt 0.7463 0.4197 0.0000
vt 0.7167 0.3633 0.0000
vt 0.3708 0.3463 0.0000
vt 0.3985 0.4135 0.0000
vt 0.4299 0.4773 0.0000
vt 0.4201 0.3582 0.0000
vt 0.3723 0.3051 0.0000
vt 0.4251 0.3149 0.0000
vt 0.5010 0.2543 0.0000
vt 0.5083 0.2758 0.0000
vt 0.5341 0.2938 0.0000
vt 0.6444 0.3226 0.0000
vt 0.6102 0.3327 0.0000
vt 0.5257 0.3098 0.0000
vt 0.6653 0.3535 0.0000
vt 0.6171 0.3682 0.0000
vt 0.6311 0.4140 0.0000
vt 0.5991 0.4640 0.0000
vt 0.1036 0.6059 0.0000
vt 0.1168 0.5451 0.0000
vt 0.1789 0.6227 0.0000
vt 0.1826 0.6581 0.0000
vt 0.0495 0.8752 0.0000
vt 0.0214 0.8434 0.0000
vt 0.1438 0.7962 0.0000
vt 0.1519 0.8245 0.0000
vt 0.0024 0.8220 0.0000
vt 0.1435 0.7903 0.0000
vt 0.0166 0.7547 0.0000
vt 0.1589 0.7541 0.0000
vt 0.0020 0.6952 0.0000
vt 0.1498 0.7180 0.0000
vt 0.0207 0.6722 0.0000
vt 0.1490 0.7119 0.0000
vt 0.0492 0.6386 0.0000
vt 0.1534 0.6816 0.0000
vt 0.2757 0.6640 0.0000
vt 0.2885 0.6766 0.0000
vt 0.2641 0.8080 0.0000
vt 0.2665 0.8165 0.0000
vt 0.2708 0.6914 0.0000
vt 0.2724 0.6826 0.0000
vt 0.9472 0.6081 0.0000
vt 0.9250 0.5736 0.0000
vt 0.9360 0.5770 0.0000
vt 0.2837 0.0811 0.0000
vt 0.7276 0.0020 0.0000
vt 0.2724 0.5277 0.0000
vt 0.2671 0.4049 0.0000
vt 0.7274 0.5265 0.0000
vt 0.7616 0.2708 0.0000
vt 0.9371 0.6316 0.0000
vt 0.2599 0.0024 0.0000
vt 0.8830 0.5843 0.0000
vt 0.8641 0.6433 0.0000
vt 0.8395 0.6082 0.0000
vt 0.8577 0.6094 0.0000
vt 0.8742 0.6342 0.0000
vt 0.8637 0.5662 0.0000
vt 0.8733 0.5762 0.0000
vt 0.9223 0.5467 0.0000
vt 0.9234 0.5612 0.0000
vt 0.9561 0.5548 0.0000
vt 0.9451 0.5663 0.0000
vt 0.9832 0.6081 0.0000
vt 0.9631 0.6080 0.0000
vt 0.9574 0.6530 0.0000
vt 0.9464 0.6418 0.0000
vt 0.9234 0.6618 0.0000
vt 0.9241 0.6474 0.0000
vt 0.2441 0.2067 0.0000
vt 0.2264 0.0808 0.0000
vt 0.2436 0.2566 0.0000
vt 0.2463 0.3055 0.0000
vt 0.2433 0.3475 0.0000
vt 0.2433 0.4049 0.0000
vt 0.2381 0.5277 0.0000
vt 0.7663 0.4225 0.0000
vt 0.7560 0.5293 0.0000
vt 0.7850 0.3664 0.0000
vt 0.7629 0.3224 0.0000
vt 0.7821 0.3263 0.0000
vt 0.8047 0.2801 0.0000
vt 0.8237 0.2129 0.0000
vt 0.1592 0.2149 0.0000
vt 0.0935 0.1274 0.0000
vt 0.1788 0.0960 0.0000
vt 0.2129 0.2075 0.0000
vt 0.9500 0.1660 0.0000
vt 0.9038 0.1782 0.0000
vt 0.8812 0.1504 0.0000
vt 0.9346 0.1152 0.0000
vt 0.1532 0.3981 0.0000
vt 0.2105 0.4039 0.0000
vt 0.1840 0.5138 0.0000
vt 0.1025 0.4839 0.0000
vt 0.8436 0.4312 0.0000
vt 0.8735 0.5101 0.0000
vt 0.8019 0.5238 0.0000
vt 0.7945 0.4257 0.0000
vt 0.1468 0.2563 0.0000
vt 0.0487 0.1898 0.0000
vt 0.8971 0.2686 0.0000
vt 0.9920 0.2558 0.0000
vt 0.9918 0.3119 0.0000
vt 0.8793 0.3171 0.0000
vt 0.5270 0.7613 0.0000
vt 0.5469 0.7569 0.0000
vt 0.5465 0.7591 0.0000
vt 0.5269 0.7678 0.0000
vt 0.5282 0.8026 0.0000
vt 0.5273 0.7961 0.0000
vt 0.5476 0.8024 0.0000
vt 0.5478 0.8043 0.0000
vt 0.8330 0.2836 0.0000
vt 0.8498 0.2328 0.0000
vt 0.3741 0.6066 0.0000
vt 0.4251 0.6074 0.0000
vt 0.4140 0.6246 0.0000
vt 0.3719 0.6338 0.0000
vt 0.2086 0.2555 0.0000
vt 0.2095 0.3052 0.0000
vt 0.2065 0.3485 0.0000
vt 0.1700 0.0409 0.0000
vt 0.2192 0.0170 0.0000
vt 0.8666 0.1323 0.0000
vt 0.5450 0.7699 0.0000
vt 0.5265 0.7780 0.0000
vt 0.5451 0.7920 0.0000
vt 0.5257 0.7862 0.0000
vt 0.8107 0.3782 0.0000
vt 0.1396 0.3463 0.0000
vt 0.0806 0.4773 0.0000
vt 0.1120 0.4135 0.0000
vt 0.0903 0.3583 0.0000
vt 0.0853 0.3149 0.0000
vt 0.1381 0.3051 0.0000
vt 0.0020 0.2759 0.0000
vt 0.0093 0.2544 0.0000
vt 0.9894 0.3721 0.0000
vt 0.9914 0.3877 0.0000
vt 0.9155 0.3810 0.0000
vt 0.8889 0.3619 0.0000
vt 0.9003 0.4107 0.0000
vt 0.8610 0.3837 0.0000
vt 0.8757 0.4488 0.0000
vt 0.8927 0.5041 0.0000
vt 0.7657 0.7716 0.0000
vt 0.6430 0.7746 0.0000
vt 0.6645 0.7370 0.0000
vt 0.7888 0.7342 0.0000
vt 0.6648 0.7024 0.0000
vt 0.8026 0.7116 0.0000
vt 0.6621 0.6959 0.0000
vt 0.8178 0.6804 0.0000
vt 0.6305 0.6661 0.0000
vt 0.7811 0.6147 0.0000
vt 0.6224 0.6270 0.0000
vt 0.7770 0.5467 0.0000
vt 0.8220 0.8475 0.0000
vt 0.6711 0.8509 0.0000
vt 0.6707 0.8441 0.0000
vt 0.8051 0.8185 0.0000
vt 0.6660 0.8100 0.0000
vt 0.7885 0.8041 0.0000
vt 0.5295 0.7826 0.0000
vt 0.5302 0.7546 0.0000
vt 0.5308 0.7373 0.0000
vt 0.3498 0.6065 0.0000
vt 0.3610 0.5754 0.0000
vt 0.3720 0.5720 0.0000
vt 0.9248 0.0832 0.0000
vt 0.3600 0.6301 0.0000
vt 0.2500 0.0020 0.0000
vt 0.4140 0.5827 0.0000
vt 0.4331 0.6416 0.0000
vt 0.4229 0.6325 0.0000
vt 0.4393 0.6077 0.0000
vt 0.4576 0.6065 0.0000
vt 0.4237 0.5745 0.0000
vt 0.4333 0.5645 0.0000
vt 0.3735 0.5596 0.0000
vt 0.3747 0.5451 0.0000
vt 0.3519 0.5648 0.0000
vt 0.3409 0.5533 0.0000
vt 0.3340 0.6065 0.0000
vt 0.3139 0.6066 0.0000
vt 0.3508 0.6402 0.0000
vt 0.3398 0.6515 0.0000
vt 0.3731 0.6458 0.0000
vt 0.3738 0.6603 0.0000
vt 0.6011 0.9979 0.0000
vt 0.6011 0.8711 0.0000
vt 0.6458 0.8710 0.0000
vt 0.6458 0.9980 0.0000
vt 0.5421 0.9373 0.0000
vt 0.5257 0.8683 0.0000
vt 0.7049 0.9374 0.0000
vt 0.7215 0.8683 0.0000
# 248 texture coords

g Box003
usemtl 07___Default
s 1
f 1/1/1 2/2/2 3/3/3 4/4/4 
s 3
f 5/5/5 6/6/6 7/7/7 8/8/8 
s 1
f 9/9/9 10/10/10 11/11/11 12/12/12 
f 13/13/13 14/14/14 11/15/11 10/16/10 
f 1/1/1 4/4/4 15/17/15 16/18/16 
f 17/19/17 18/20/18 15/21/15 4/22/4 
s 40
f 19/23/19 20/24/20 21/25/21 22/26/22 
f 19/23/19 23/27/23 24/28/24 20/24/20 
s 1
f 17/19/17 25/29/25 26/30/26 18/20/18 
s 260
f 27/31/27 28/32/28 29/33/29 30/34/30 
s 1
f 2/2/2 31/35/31 32/36/32 33/37/33 
f 34/38/34 35/39/35 36/40/36 37/41/37 
s 3
f 3/3/3 6/42/6 5/43/5 4/4/4 
f 38/44/38 25/29/25 7/7/7 39/45/39 
f 17/19/17 4/22/4 5/5/5 8/8/8 
s 40
f 20/24/20 40/46/40 41/47/41 21/25/21 
f 42/48/42 40/46/40 20/24/20 24/28/24 
s 1
f 43/49/43 44/50/44 14/14/14 45/51/45 
f 9/9/9 12/12/12 35/39/35 46/52/46 
f 10/10/10 9/9/9 47/53/47 48/54/48 
f 9/9/9 46/52/46 49/55/49 47/53/47 
f 46/52/46 50/56/50 51/57/51 49/55/49 
f 50/56/50 52/58/52 53/59/53 51/57/51 
f 52/60/52 54/61/54 55/62/55 53/63/53 
f 54/61/54 56/64/56 57/65/57 55/62/55 
f 56/64/56 13/13/13 58/66/58 57/65/57 
f 13/13/13 10/16/10 48/67/48 58/66/58 
s 40
f 48/68/59 47/69/60 59/70/61 60/71/62 
f 47/72/60 49/73/63 61/74/64 59/75/61 
f 49/73/63 51/76/65 62/77/66 61/74/64 
f 51/76/65 53/78/67 63/79/68 62/77/66 
f 53/78/67 55/80/69 64/81/70 63/79/68 
f 55/80/69 57/82/71 65/83/72 64/81/70 
f 57/82/71 58/84/73 66/85/74 65/83/72 
f 58/84/73 48/68/59 60/71/62 66/85/74 
f 60/71/62 59/70/61 41/86/41 40/87/40 
f 59/75/61 61/74/64 21/88/21 41/89/41 
f 61/74/64 62/77/66 22/26/22 21/88/21 
f 62/77/66 63/79/68 19/23/19 22/26/22 
f 63/79/68 64/81/70 23/27/23 19/23/19 
f 64/81/70 65/83/72 24/90/24 23/27/23 
f 65/83/72 66/85/74 42/91/42 24/90/24 
f 66/85/74 60/71/62 40/87/40 42/91/42 
s 1
f 52/58/52 50/56/50 16/18/16 15/17/15 
f 18/20/18 54/61/54 52/60/52 15/21/15 
s 260
f 67/92/75 27/31/27 68/93/76 69/94/77 
s 1
f 16/18/16 50/56/50 34/38/34 31/35/31 
f 33/37/33 70/95/78 3/3/3 2/2/2 
s 3
f 6/6/6 71/96/79 39/45/39 7/7/7 
s 1
f 72/97/80 73/98/81 12/12/12 11/11/11 
f 44/50/44 72/99/80 11/15/11 14/14/14 
f 25/29/25 38/44/38 74/100/82 26/30/26 
s 260
f 67/92/75 75/101/83 28/32/28 27/31/27 
s 1
f 1/1/1 16/18/16 31/35/31 2/2/2 
f 34/38/34 50/56/50 46/52/46 35/39/35 
s 3
f 70/95/78 71/102/79 6/42/6 3/3/3 
f 25/29/25 17/19/17 8/8/8 7/7/7 
s 1
f 13/13/13 56/64/56 45/51/45 14/14/14 
f 12/12/12 73/98/81 36/40/36 35/39/35 
s 260
f 27/31/27 30/34/30 76/103/84 68/93/76 
s 1
f 34/38/34 37/41/37 32/36/32 31/35/31 
s 4
f 56/104/85 54/105/86 77/106/87 78/107/88 
f 54/105/86 18/108/89 79/109/90 77/106/87 
f 18/108/89 26/110/91 80/111/92 79/109/90 
f 26/110/91 74/112/93 81/113/94 80/111/92 
f 74/112/93 82/114/95 83/115/96 81/113/94 
f 82/114/95 43/116/97 84/117/98 83/115/96 
f 43/116/97 45/118/99 85/119/100 84/117/98 
f 45/118/99 56/104/85 78/107/88 85/119/100 
f 78/107/88 77/106/87 30/34/30 29/33/29 
f 77/106/87 79/109/90 76/103/84 30/34/30 
f 79/109/90 80/111/92 68/93/76 76/103/84 
f 80/111/92 81/113/94 69/94/77 68/93/76 
f 81/113/94 83/115/96 67/92/75 69/94/77 
f 83/115/96 84/117/98 75/101/83 67/92/75 
f 84/117/98 85/119/100 28/32/28 75/101/83 
f 85/119/100 78/107/88 29/33/29 28/32/28 
s 1
f 33/37/33 86/120/101 87/121/102 70/95/78 
f 32/36/32 88/122/103 86/120/101 33/37/33 
f 37/41/37 89/123/104 88/122/103 32/36/32 
f 36/40/36 90/124/105 89/123/104 37/41/37 
f 73/98/81 91/125/106 90/124/105 36/40/36 
f 72/97/80 92/126/107 91/125/106 73/98/81 
f 44/50/44 93/127/108 92/128/107 72/99/80 
f 44/50/44 43/49/43 94/129/109 93/127/108 
f 82/130/110 95/131/110 94/129/109 43/49/43 
f 74/100/82 96/132/111 95/131/110 82/130/110 
f 38/44/38 97/133/112 96/132/111 74/100/82 
f 98/134/113 99/135/114 100/136/115 101/137/116 
s 3
f 102/138/117 103/139/118 104/140/119 105/141/120 
s 1
f 106/142/121 107/143/122 108/144/123 109/145/124 
f 110/146/125 109/147/124 108/148/123 111/149/126 
f 98/134/113 112/150/127 113/151/128 99/135/114 
f 114/152/129 99/153/114 113/154/128 115/155/130 
s 32
f 116/156/131 117/157/132 118/158/133 119/159/134 
f 116/160/131 119/161/134 120/162/135 121/163/136 
s 1
f 114/152/129 115/155/130 122/164/137 123/165/138 
s 8
f 124/166/139 125/167/140 126/168/141 127/169/142 
s 1
f 101/137/116 86/120/101 88/122/103 128/170/143 
f 129/171/144 89/123/104 90/124/105 130/172/145 
s 3
f 100/136/115 99/135/114 102/173/117 105/174/120 
f 97/133/112 131/175/146 104/140/119 123/165/138 
f 114/152/129 103/139/118 102/138/117 99/153/114 
s 32
f 119/159/134 118/158/133 132/176/147 133/177/148 
f 134/178/149 120/162/135 119/161/134 133/179/148 
s 1
f 94/129/109 135/180/150 111/149/126 93/127/108 
f 106/142/121 136/181/151 130/172/145 107/143/122 
f 109/145/124 137/182/152 138/183/153 106/142/121 
f 106/142/121 138/183/153 139/184/154 136/181/151 
f 136/181/151 139/184/154 140/185/155 141/186/156 
f 141/186/156 140/185/155 142/187/157 143/188/158 
f 143/189/158 142/190/157 144/191/159 145/192/160 
f 145/192/160 144/191/159 146/193/161 147/194/162 
f 147/194/162 146/193/161 148/195/163 110/146/125 
f 110/146/125 148/195/163 137/196/152 109/147/124 
s 32
f 137/197/164 149/198/165 150/199/166 138/200/167 
f 138/200/167 150/199/166 151/201/168 139/202/169 
f 139/202/169 151/201/168 152/203/170 140/204/171 
f 140/204/171 152/203/170 153/205/172 142/206/173 
f 142/206/173 153/205/172 154/207/174 144/208/175 
f 144/209/175 154/210/174 155/211/176 146/212/177 
f 146/212/177 155/211/176 156/213/178 148/214/179 
f 148/214/179 156/213/178 149/198/165 137/197/164 
f 149/198/165 133/215/148 132/176/147 150/199/166 
f 150/199/166 132/176/147 118/158/133 151/201/168 
f 151/201/168 118/158/133 117/157/132 152/203/170 
f 152/203/170 117/157/132 116/216/131 153/205/172 
f 153/205/172 116/216/131 121/217/136 154/207/174 
f 154/210/174 121/163/136 120/162/135 155/211/176 
f 155/211/176 120/162/135 134/178/149 156/213/178 
f 156/213/178 134/178/149 133/215/148 149/198/165 
s 1
f 143/188/158 113/151/128 112/150/127 141/186/156 
f 115/155/130 113/154/128 143/189/158 145/192/160 
s 8
f 157/218/180 158/219/181 159/220/182 124/166/139 
s 1
f 112/150/127 128/170/143 129/171/144 141/186/156 
f 86/120/101 101/137/116 100/136/115 87/121/102 
s 3
f 105/141/120 104/140/119 131/175/146 160/221/183 
s 1
f 92/126/107 108/144/123 107/143/122 91/125/106 
f 93/127/108 111/149/126 108/148/123 92/128/107 
f 123/165/138 122/164/137 96/132/111 97/133/112 
s 8
f 157/218/180 124/166/139 127/169/142 161/222/184 
s 1
f 98/134/113 101/137/116 128/170/143 112/150/127 
f 129/171/144 130/172/145 136/181/151 141/186/156 
s 3
f 87/121/102 100/136/115 105/174/120 160/223/183 
f 123/165/138 104/140/119 103/139/118 114/152/129 
s 1
f 110/146/125 111/149/126 135/180/150 147/194/162 
f 107/143/122 130/172/145 90/124/105 91/125/106 
s 8
f 124/166/139 159/220/182 162/224/185 125/167/140 
s 1
f 129/171/144 128/170/143 88/122/103 89/123/104 
s 8
f 147/225/186 163/226/187 164/227/188 145/228/189 
f 145/228/189 164/227/188 165/229/190 115/230/191 
f 115/230/191 165/229/190 166/231/192 122/232/193 
f 122/232/193 166/231/192 167/233/194 96/234/195 
f 96/234/195 167/233/194 168/235/196 95/236/197 
f 95/236/197 168/235/196 169/237/198 94/238/199 
f 94/238/199 169/237/198 170/239/200 135/240/201 
f 135/240/201 170/239/200 163/226/187 147/225/186 
f 163/226/187 126/168/141 125/167/140 164/227/188 
f 164/227/188 125/167/140 162/224/185 165/229/190 
f 165/229/190 162/224/185 159/220/182 166/231/192 
f 166/231/192 159/220/182 158/219/181 167/233/194 
f 167/233/194 158/219/181 157/218/180 168/235/196 
f 168/235/196 157/218/180 161/222/184 169/237/198 
f 169/237/198 161/222/184 127/169/142 170/239/200 
f 170/239/200 127/169/142 126/168/141 163/226/187 
s 1
f 38/241/38 70/242/78 87/243/102 97/244/112 
s 3
f 39/245/39 71/246/79 70/242/78 38/241/38 
f 131/247/146 97/244/112 87/243/102 160/248/183 
# 168 polygons

