# 3ds Max Wavefront OBJ Exporter v0.97b - (c)2007 guruware
# File Created: 31.01.2016 04:35:48

mtllib Turret Gun Export.mtl

#
# object Object001
#

v  2.3429 2.3403 28.1136
v  0.3255 2.3403 28.1136
v  0.3255 -6.4877 24.9004
v  2.3429 -6.4877 24.9004
v  -2.0545 5.2370 22.7050
v  -5.7424 2.6014 22.7050
v  -5.7424 -6.7489 22.7050
v  -2.0545 -9.3844 22.7050
v  6.4635 2.6014 22.7050
v  2.7755 5.2370 22.7050
v  2.7755 -9.3844 22.7050
v  6.4635 -6.7489 22.7050
v  10.7197 7.3252 5.0763
v  10.7197 -7.7275 5.0763
v  13.1652 -0.2011 5.0763
v  -12.4441 -0.2011 5.0763
v  -9.9986 -7.7275 5.0763
v  -9.9986 7.3252 5.0763
v  4.3174 11.9768 5.0763
v  4.5455 12.6790 4.1101
v  0.2998 12.6790 4.1101
v  0.3031 11.9768 5.0763
v  -3.5963 -12.3791 5.0763
v  -3.8245 -13.0812 4.1101
v  0.2998 -13.0812 4.1101
v  0.3031 -12.3791 5.0763
v  -10.5959 7.7592 4.1101
v  -3.5963 11.9768 5.0763
v  -3.8245 12.6790 4.1101
v  -10.5959 -8.1615 4.1101
v  11.3170 7.7592 4.1101
v  11.3170 -8.1615 4.1101
v  4.3174 -12.3791 5.0763
v  4.5455 -13.0812 4.1101
v  13.9035 -0.2011 4.1101
v  -13.1824 -0.2011 4.1101
v  -5.7424 -6.7028 5.0763
v  -5.7424 6.3006 5.0763
v  -2.0545 -10.3680 5.0763
v  0.3255 -10.3680 5.0763
v  6.4635 -6.7028 5.0763
v  2.7755 -10.3680 5.0763
v  6.4635 6.3006 5.0763
v  2.7755 9.9658 5.0763
v  0.3255 9.9658 5.0763
v  -2.0545 9.9658 5.0763
v  -5.7424 -6.7219 12.3610
v  -5.7424 4.7720 12.3610
v  -2.0545 -9.9616 12.3610
v  0.3255 -9.9616 12.3610
v  6.4635 -6.7219 12.3610
v  2.7755 -9.9616 12.3610
v  6.4635 4.7720 12.3610
v  2.7755 7.1077 13.2985
v  0.3255 7.1077 13.2985
v  -2.0545 7.1077 13.2985
v  -1.6218 2.3403 28.1136
v  -1.6218 -6.4877 24.9004
v  -5.7424 -6.7304 15.6381
v  -5.7424 4.0843 15.6381
v  -2.0545 -9.7787 15.6381
v  0.3255 -9.7787 15.6381
v  6.4635 -6.7304 15.6381
v  2.7755 -9.7787 15.6381
v  6.4635 4.0843 15.6381
v  2.7755 7.1068 15.6649
v  0.3255 24.8398 15.6766
v  1.8822 24.8398 15.6931
v  1.5647 24.8403 14.7369
v  0.3279 24.8403 14.3720
v  -2.0545 7.1068 15.6649
v  -1.1612 24.8398 15.6931
v  -0.8425 24.8403 14.7336
v  -5.7424 -6.7400 19.3010
v  -5.7424 3.3157 19.3010
v  -2.0545 -9.5743 19.3010
v  0.3255 -9.5743 19.3010
v  6.4635 -6.7400 19.3010
v  2.7755 -9.5743 19.3010
v  6.4635 3.3157 19.3010
v  2.7755 7.1057 18.3099
v  0.3279 24.8392 17.2598
v  1.5487 24.8392 16.8996
v  -2.0545 7.1057 18.3099
v  -0.8266 24.8392 16.9031
v  0.3255 -9.3844 22.7050
v  0.3255 5.2370 22.7050
v  0.3255 7.1057 18.3099
v  1.8833 7.1075 14.2810
v  2.3429 7.1068 15.6649
v  0.3255 7.1075 13.8213
v  -1.1622 7.1075 14.2810
v  -1.6218 7.1068 15.6649
v  -1.1622 7.1059 17.3273
v  0.3255 7.1059 17.7870
v  1.8833 7.1059 17.3273
v  1.8833 21.6945 14.2907
v  2.3429 21.6938 15.6746
v  0.3255 21.6945 13.8310
v  -1.1622 21.6945 14.2907
v  -1.6218 21.6938 15.6746
v  -1.1622 21.6929 17.3370
v  0.3255 21.6929 17.7967
v  1.8833 21.6929 17.3370
v  1.5647 21.6943 14.7349
v  1.8822 21.6938 15.6910
v  0.3279 21.6943 14.3699
v  -0.8425 21.6943 14.7316
v  -1.1612 21.6938 15.6910
v  -0.8266 21.6932 16.9011
v  0.3279 21.6932 17.2578
v  1.5487 21.6932 16.8976
v  2.3429 2.6236 22.7050
v  2.3429 -6.7710 22.7050
v  0.3255 2.6236 22.7050
v  -1.6218 2.6236 22.7050
v  -1.6218 -6.7710 22.7050
v  0.3255 -6.7710 22.7050
# 118 vertices

vn 0.0000 -0.3420 0.9397
vn 0.0000 0.0000 1.0000
vn 0.0000 0.8090 0.5879
vn 0.0000 -0.8090 0.5879
vn -0.4755 0.6545 0.5879
vn -0.4755 -0.6545 0.5879
vn 0.4755 0.6545 0.5879
vn 0.4755 -0.6545 0.5879
vn 0.7694 -0.2500 0.5879
vn 0.7694 0.2500 0.5879
vn -0.7694 -0.2500 0.5879
vn -0.7694 0.2500 0.5879
vn -1.0000 -0.0000 -0.0000
vn -0.6833 -0.7299 0.0194
vn 0.0000 -0.9984 0.0557
vn 0.6833 -0.7299 0.0194
vn 1.0000 0.0000 -0.0000
vn 0.6329 0.7450 0.2107
vn -0.0000 0.9446 0.3283
vn -0.6329 0.7450 0.2107
vn -0.0000 0.8090 0.5879
vn -0.6486 -0.7608 0.0202
vn 0.6486 -0.7608 0.0202
vn 1.0000 0.0000 0.0000
vn 0.5932 0.7991 0.0975
vn -0.0001 1.0000 0.0004
vn -0.5932 0.7991 0.0975
vn 0.0001 1.0000 0.0004
vn -1.0000 -0.0000 0.0000
vn -0.6234 -0.7816 0.0208
vn 0.6234 -0.7816 0.0208
vn 0.6694 0.7375 0.0900
vn -0.6694 0.7375 0.0900
vn -0.5955 -0.8031 0.0214
vn 0.5955 -0.8031 0.0214
vn 0.6173 0.7468 0.2473
vn -0.0000 0.9203 0.3913
vn -0.6173 0.7468 0.2473
vn 0.0002 1.0000 0.0004
vn -0.0000 1.0000 0.0003
vn 0.0000 1.0000 0.0003
vn -0.0002 1.0000 0.0004
vn 0.9490 0.0002 -0.3152
vn 0.2830 0.0006 -0.9591
vn -0.2952 0.0006 -0.9554
vn -0.9490 0.0002 -0.3152
vn -0.9638 -0.0002 0.2665
vn -0.2952 -0.0006 0.9554
vn 0.2830 -0.0006 0.9591
vn 0.9638 -0.0002 0.2665
vn 0.0000 1.0000 0.0005
vn -0.0000 1.0000 0.0005
vn -0.0000 0.9986 0.0523
vn 0.0000 0.9986 0.0523
vn -1.0000 0.0000 -0.0000
vn 0.0000 -0.9918 0.1280
# 56 vertex normals

vt 0.9948 0.1357 0.0000
vt 0.9659 0.1357 0.0000
vt 0.9659 0.0020 0.0000
vt 0.9948 0.0020 0.0000
vt 0.7763 0.9025 0.0000
vt 0.7237 0.8649 0.0000
vt 0.7237 0.7315 0.0000
vt 0.7763 0.6939 0.0000
vt 0.8979 0.8649 0.0000
vt 0.8453 0.9025 0.0000
vt 0.8453 0.6939 0.0000
vt 0.8979 0.7315 0.0000
vt 0.3832 0.6093 0.0000
vt 0.2293 0.4551 0.0000
vt 0.3313 0.5072 0.0000
vt 0.0696 0.7696 0.0000
vt 0.0176 0.6676 0.0000
vt 0.1715 0.8218 0.0000
vt 0.3658 0.7224 0.0000
vt 0.3801 0.7293 0.0000
vt 0.3365 0.7757 0.0000
vt 0.3253 0.7645 0.0000
vt 0.0350 0.5545 0.0000
vt 0.0207 0.5475 0.0000
vt 0.0631 0.5024 0.0000
vt 0.0744 0.5136 0.0000
vt 0.1690 0.8375 0.0000
vt 0.2846 0.8041 0.0000
vt 0.2916 0.8183 0.0000
vt 0.0020 0.6701 0.0000
vt 0.3988 0.6068 0.0000
vt 0.2319 0.4394 0.0000
vt 0.1163 0.4728 0.0000
vt 0.1092 0.4586 0.0000
vt 0.3425 0.4960 0.0000
vt 0.0583 0.7808 0.0000
vt 0.0717 0.6344 0.0000
vt 0.2047 0.7677 0.0000
vt 0.0714 0.5589 0.0000
vt 0.0955 0.5341 0.0000
vt 0.1962 0.5091 0.0000
vt 0.1208 0.5092 0.0000
vt 0.3292 0.6425 0.0000
vt 0.3294 0.7180 0.0000
vt 0.3046 0.7435 0.0000
vt 0.2801 0.7677 0.0000
vt 0.7013 0.4403 0.0000
vt 0.7012 0.5348 0.0000
vt 0.5209 0.5341 0.0000
vt 0.4975 0.4394 0.0000
vt 0.7827 0.4404 0.0000
vt 0.7781 0.5349 0.0000
vt 0.8822 0.0020 0.0000
vt 0.8822 0.0967 0.0000
vt 0.8449 0.0967 0.0000
vt 0.8449 0.0020 0.0000
vt 0.5425 0.0029 0.0000
vt 0.5425 0.0973 0.0000
vt 0.4656 0.0975 0.0000
vt 0.4610 0.0029 0.0000
vt 0.7463 0.0020 0.0000
vt 0.7228 0.0967 0.0000
vt 0.8275 0.0067 0.0000
vt 0.7896 0.1158 0.0000
vt 0.9533 0.6939 0.0000
vt 0.9533 0.8083 0.0000
vt 0.9153 0.8083 0.0000
vt 0.9153 0.6939 0.0000
vt 0.4541 0.5531 0.0000
vt 0.4162 0.4441 0.0000
vt 0.9380 0.1357 0.0000
vt 0.9380 0.0020 0.0000
vt 0.9206 0.0020 0.0000
vt 0.9206 0.0967 0.0000
vt 0.9902 0.6939 0.0000
vt 0.9902 0.8083 0.0000
vt 0.7012 0.5773 0.0000
vt 0.5315 0.5767 0.0000
vt 0.7761 0.5774 0.0000
vt 0.8822 0.1394 0.0000
vt 0.8449 0.1394 0.0000
vt 0.5425 0.1398 0.0000
vt 0.4676 0.1399 0.0000
vt 0.7122 0.1393 0.0000
vt 0.7866 0.1461 0.0000
vt 0.0264 0.9664 0.0000
vt 0.0020 0.9666 0.0000
vt 0.0070 0.9542 0.0000
vt 0.0264 0.9494 0.0000
vt 0.4571 0.5835 0.0000
vt 0.9206 0.1394 0.0000
vt 0.0497 0.9666 0.0000
vt 0.0447 0.9541 0.0000
vt 0.7012 0.6247 0.0000
vt 0.5435 0.6244 0.0000
vt 0.7740 0.6249 0.0000
vt 0.8822 0.1870 0.0000
vt 0.8449 0.1870 0.0000
vt 0.5425 0.1873 0.0000
vt 0.4697 0.1874 0.0000
vt 0.7002 0.1870 0.0000
vt 0.7837 0.1801 0.0000
vt 0.0264 0.9869 0.0000
vt 0.0072 0.9823 0.0000
vt 0.4599 0.6175 0.0000
vt 0.9206 0.1870 0.0000
vt 0.0445 0.9823 0.0000
vt 0.7012 0.6688 0.0000
vt 0.5548 0.6685 0.0000
vt 0.7721 0.6691 0.0000
vt 0.8822 0.2313 0.0000
vt 0.8449 0.2313 0.0000
vt 0.5425 0.2314 0.0000
vt 0.4716 0.2316 0.0000
vt 0.6888 0.2311 0.0000
vt 0.7591 0.2391 0.0000
vt 0.9533 0.9360 0.0000
vt 0.9153 0.9360 0.0000
vt 0.9153 0.8726 0.0000
vt 0.9533 0.8726 0.0000
vt 0.4845 0.6765 0.0000
vt 0.9206 0.2313 0.0000
vt 0.9902 0.9360 0.0000
vt 0.9902 0.8726 0.0000
vt 0.9153 0.8386 0.0000
vt 0.9291 0.8209 0.0000
vt 0.9220 0.8386 0.0000
vt 0.9533 0.8150 0.0000
vt 0.9763 0.8209 0.0000
vt 0.9902 0.8386 0.0000
vt 0.9835 0.8386 0.0000
vt 0.9763 0.8600 0.0000
vt 0.9533 0.8659 0.0000
vt 0.9291 0.8600 0.0000
vt 0.9681 0.4394 -0.0303
vt 0.9460 0.4394 0.0361
vt 0.9461 0.6338 0.0334
vt 0.9682 0.6338 -0.0306
vt 0.9212 0.4394 -0.0322
vt 0.9212 0.6338 -0.0361
vt 0.8974 0.4394 0.0361
vt 0.8973 0.6338 0.0334
vt 0.8753 0.4394 -0.0303
vt 0.8752 0.6338 -0.0306
vt 0.8489 0.4394 0.0334
vt 0.8488 0.6338 0.0361
vt 0.8250 0.4394 -0.0361
vt 0.8250 0.6338 -0.0322
vt 0.8001 0.4394 0.0334
vt 0.8002 0.6338 0.0361
vt 0.9945 0.4394 0.0334
vt 0.9946 0.6338 0.0361
vt 0.4610 0.3750 0.0000
vt 0.4682 0.3570 0.0000
vt 0.4732 0.3628 0.0000
vt 0.4682 0.3752 0.0000
vt 0.4927 0.3511 0.0000
vt 0.4926 0.3580 0.0000
vt 0.5160 0.3570 0.0000
vt 0.5110 0.3627 0.0000
vt 0.5232 0.3750 0.0000
vt 0.5160 0.3752 0.0000
vt 0.5160 0.3966 0.0000
vt 0.5107 0.3909 0.0000
vt 0.4927 0.4025 0.0000
vt 0.4926 0.3955 0.0000
vt 0.4682 0.3966 0.0000
vt 0.4735 0.3909 0.0000
vt 0.7912 0.9199 -0.0128
vt 0.7829 0.9199 0.0140
vt 0.7829 0.9980 0.0137
vt 0.7913 0.9980 -0.0129
vt 0.7725 0.9199 -0.0139
vt 0.7725 0.9980 -0.0144
vt 0.7627 0.9199 0.0144
vt 0.7627 0.9980 0.0141
vt 0.7543 0.9199 -0.0128
vt 0.7543 0.9980 -0.0129
vt 0.7437 0.9199 0.0124
vt 0.7437 0.9980 0.0127
vt 0.7340 0.9199 -0.0144
vt 0.7340 0.9980 -0.0139
vt 0.7237 0.9199 0.0120
vt 0.7237 0.9980 0.0124
vt 0.8018 0.9199 0.0120
vt 0.8018 0.9980 0.0124
vt 0.8391 0.8652 0.0000
vt 0.8391 0.7312 0.0000
vt 0.8103 0.9025 0.0000
vt 0.8103 0.8652 0.0000
vt 0.7825 0.8652 0.0000
vt 0.7825 0.7312 0.0000
vt 0.8103 0.6939 0.0000
vt 0.8103 0.7312 0.0000
vt 0.4610 0.2565 0.0000
vt 0.5951 0.2565 0.0000
vt 0.5910 0.3337 0.0000
vt 0.4651 0.2878 0.0000
vt 0.1534 0.8549 0.0000
vt 0.1822 0.8549 0.0000
vt 0.1822 0.9321 0.0000
vt 0.1534 0.9321 0.0000
vt 0.2100 0.8549 0.0000
vt 0.2100 0.9321 0.0000
vt 0.0020 0.8549 0.0000
vt 0.1361 0.8549 0.0000
vt 0.1320 0.8862 0.0000
vt 0.0060 0.9321 0.0000
vt 0.9153 0.9533 0.0000
vt 0.9431 0.9533 0.0000
vt 0.9431 0.9849 0.0000
vt 0.9153 0.9849 0.0000
vt 0.9719 0.9533 0.0000
vt 0.9719 0.9849 0.0000
# 214 texture coords

g Object001
usemtl 02___Default
s 1
f 1/1/1 2/2/1 3/3/1 4/4/1 
s 2
f 5/5/2 6/6/2 7/7/2 8/8/2 
f 9/9/2 10/10/2 11/11/2 12/12/2 
s off
f 13/13/2 14/14/2 15/15/2 
f 16/16/2 17/17/2 18/18/2 
f 19/19/3 20/20/3 21/21/3 22/22/3 
f 23/23/4 24/24/4 25/25/4 26/26/4 
f 27/27/5 18/18/5 28/28/5 29/29/5 
f 24/24/6 23/23/6 17/17/6 30/30/6 
f 20/20/7 19/19/7 13/13/7 31/31/7 
f 32/32/8 14/14/8 33/33/8 34/34/8 
f 15/15/9 14/14/9 32/32/9 35/35/9 
f 15/15/10 35/35/10 31/31/10 13/13/10 
f 16/16/11 36/36/11 30/30/11 17/17/11 
f 16/16/12 18/18/12 27/27/12 36/36/12 
f 18/18/2 17/17/2 37/37/2 38/38/2 
f 17/17/2 23/23/2 39/39/2 37/37/2 
f 26/26/2 40/40/2 39/39/2 23/23/2 
f 33/33/2 14/14/2 41/41/2 42/42/2 
f 14/14/2 13/13/2 43/43/2 41/41/2 
f 13/13/2 19/19/2 44/44/2 43/43/2 
f 22/22/2 45/45/2 44/44/2 19/19/2 
f 28/28/2 18/18/2 38/38/2 46/46/2 
f 37/47/13 47/48/13 48/49/13 38/50/13 
f 37/47/14 39/51/14 49/52/14 47/48/14 
f 40/53/15 50/54/15 49/55/15 39/56/15 
f 41/57/16 51/58/16 52/59/16 42/60/16 
f 41/57/17 43/61/17 53/62/17 51/58/17 
f 43/61/18 44/63/18 54/64/18 53/62/18 
f 45/65/19 55/66/19 54/67/19 44/68/19 
f 38/50/20 48/49/20 56/69/20 46/70/20 
s 1
f 57/71/1 58/72/1 3/3/1 2/2/1 
s off
f 21/21/21 29/29/21 28/28/21 22/22/21 
f 25/25/4 34/34/4 33/33/4 26/26/4 
f 26/26/2 33/33/2 42/42/2 40/40/2 
f 22/22/2 28/28/2 46/46/2 45/45/2 
f 42/73/15 52/74/15 50/54/15 40/53/15 
f 46/75/19 56/76/19 55/66/19 45/65/19 
f 47/48/13 59/77/13 60/78/13 48/49/13 
f 61/79/22 59/77/22 47/48/22 49/52/22 
f 62/80/15 61/81/15 49/55/15 50/54/15 
f 51/58/23 63/82/23 64/83/23 52/59/23 
f 65/84/24 63/82/24 51/58/24 53/62/24 
f 66/85/25 65/84/25 53/62/25 54/64/25 
f 67/86/26 68/87/26 69/88/26 70/89/26 
f 48/49/27 60/78/27 71/90/27 56/69/27 
f 64/91/15 62/80/15 50/54/15 52/74/15 
f 72/92/28 67/86/28 70/89/28 73/93/28 
f 59/77/29 74/94/29 75/95/29 60/78/29 
f 76/96/30 74/94/30 59/77/30 61/79/30 
f 77/97/15 76/98/15 61/81/15 62/80/15 
f 63/82/31 78/99/31 79/100/31 64/83/31 
f 80/101/24 78/99/24 63/82/24 65/84/24 
f 81/102/32 80/101/32 65/84/32 66/85/32 
f 82/103/28 83/104/28 68/87/28 67/86/28 
f 60/78/33 75/95/33 84/105/33 71/90/33 
f 79/106/15 77/97/15 62/80/15 64/91/15 
f 85/107/26 82/103/26 67/86/26 72/92/26 
f 74/94/13 7/108/13 6/109/13 75/95/13 
f 8/110/34 7/108/34 74/94/34 76/96/34 
f 86/111/15 8/112/15 76/98/15 77/97/15 
f 78/99/35 12/113/35 11/114/35 79/100/35 
f 9/115/24 12/113/24 78/99/24 80/101/24 
f 10/116/36 9/115/36 80/101/36 81/102/36 
f 87/117/37 10/118/37 81/119/37 88/120/37 
f 75/95/38 6/109/38 5/121/38 84/105/38 
f 11/122/15 86/111/15 77/97/15 79/106/15 
f 5/123/37 87/117/37 88/120/37 84/124/37 
f 66/125/39 54/67/39 89/126/39 90/127/39 
f 54/67/40 55/66/40 91/128/40 89/126/40 
f 55/66/41 56/76/41 92/129/41 91/128/41 
f 56/76/42 71/130/42 93/131/42 92/129/42 
f 71/130/39 84/124/39 94/132/39 93/131/39 
f 84/124/40 88/120/40 95/133/40 94/132/40 
f 88/120/41 81/119/41 96/134/41 95/133/41 
f 81/119/42 66/125/42 90/127/42 96/134/42 
f 90/135/43 89/136/43 97/137/43 98/138/43 
f 89/136/44 91/139/44 99/140/44 97/137/44 
f 91/139/45 92/141/45 100/142/45 99/140/45 
f 92/141/46 93/143/46 101/144/46 100/142/46 
f 93/143/47 94/145/47 102/146/47 101/144/47 
f 94/145/48 95/147/48 103/148/48 102/146/48 
f 95/147/49 96/149/49 104/150/49 103/148/49 
f 96/151/50 90/135/50 98/138/50 104/152/50 
f 98/153/51 97/154/51 105/155/51 106/156/51 
f 97/154/26 99/157/26 107/158/26 105/155/26 
f 99/157/28 100/159/28 108/160/28 107/158/28 
f 100/159/52 101/161/52 109/162/52 108/160/52 
f 101/161/51 102/163/51 110/164/51 109/162/51 
f 102/163/26 103/165/26 111/166/26 110/164/26 
f 103/165/28 104/167/28 112/168/28 111/166/28 
f 104/167/52 98/153/52 106/156/52 112/168/52 
f 106/169/43 105/170/43 69/171/43 68/172/43 
f 105/170/44 107/173/44 70/174/44 69/171/44 
f 107/173/45 108/175/45 73/176/45 70/174/45 
f 108/175/46 109/177/46 72/178/46 73/176/46 
f 109/177/47 110/179/47 85/180/47 72/178/47 
f 110/179/48 111/181/48 82/182/48 85/180/48 
f 111/181/49 112/183/49 83/184/49 82/182/49 
f 112/185/50 106/169/50 68/172/50 83/186/50 
f 11/11/2 10/10/2 113/187/2 114/188/2 
f 10/10/2 87/189/2 115/190/2 113/187/2 
f 87/189/2 5/5/2 116/191/2 115/190/2 
f 5/5/2 8/8/2 117/192/2 116/191/2 
f 8/8/2 86/193/2 118/194/2 117/192/2 
f 86/193/2 11/11/2 114/188/2 118/194/2 
f 114/195/24 113/196/24 1/197/24 4/198/24 
f 113/199/53 115/200/53 2/201/53 1/202/53 
f 115/200/54 116/203/54 57/204/54 2/201/54 
f 116/205/55 117/206/55 58/207/55 57/208/55 
f 117/209/56 118/210/56 3/211/56 58/212/56 
f 118/210/56 114/213/56 4/214/56 3/211/56 
# 110 polygons - 2 triangles

