# 3ds Max Wavefront OBJ Exporter v0.97b - (c)2007 guruware
# File Created: 30.01.2016 21:30:36

mtllib Vial Export.mtl

#
# object Sphere001
#

v  0.0000 0.0000 36.8891
v  -0.0000 8.6492 36.5690
v  -4.6761 7.2761 36.5690
v  -7.8676 3.5930 36.5690
v  -8.5611 -1.2309 36.5690
v  -6.5366 -5.6640 36.5690
v  -2.4367 -8.2988 36.5690
v  2.4368 -8.2988 36.5690
v  6.5366 -5.6640 36.5690
v  8.5611 -1.2309 36.5690
v  7.8676 3.5930 36.5690
v  4.6761 7.2761 36.5690
v  -7.8676 12.2422 6.6458
v  -4.6761 7.2761 14.1982
v  -0.0000 8.6492 14.1982
v  -0.0000 14.5523 6.6458
v  -13.2372 6.0452 6.6458
v  -7.8676 3.5930 14.1982
v  -14.4042 -2.0710 6.6458
v  -8.5611 -1.2309 14.1982
v  -10.9979 -9.5297 6.6458
v  -6.5366 -5.6640 14.1982
v  -4.0998 -13.9628 6.6458
v  -2.4367 -8.2988 14.1982
v  4.0999 -13.9628 6.6458
v  2.4368 -8.2988 14.1982
v  10.9979 -9.5297 6.6458
v  6.5366 -5.6640 14.1982
v  14.4042 -2.0710 6.6458
v  8.5611 -1.2309 14.1982
v  13.2372 6.0452 6.6458
v  7.8676 3.5930 14.1982
v  7.8676 12.2421 6.6458
v  4.6761 7.2761 14.1982
v  -8.5611 13.3214 -2.2768
v  -0.0000 15.8351 -2.2768
v  -14.4042 6.5782 -2.2768
v  -15.6740 -2.2536 -2.2768
v  -11.9674 -10.3698 -2.2768
v  -4.4613 -15.1937 -2.2768
v  4.4613 -15.1937 -2.2768
v  11.9674 -10.3698 -2.2768
v  15.6740 -2.2536 -2.2768
v  14.4042 6.5782 -2.2768
v  8.5611 13.3214 -2.2768
v  -6.5366 10.1711 -10.4765
v  -0.0000 12.0905 -10.4765
v  -10.9979 5.0226 -10.4765
v  -11.9674 -1.7207 -10.4765
v  -9.1374 -7.9176 -10.4765
v  -3.4063 -11.6007 -10.4765
v  3.4063 -11.6007 -10.4765
v  9.1374 -7.9176 -10.4765
v  11.9674 -1.7207 -10.4765
v  10.9979 5.0226 -10.4765
v  6.5366 10.1711 -10.4765
v  0.0000 0.0000 -15.9980
v  -3.4644 5.3907 -14.3184
v  -0.0000 6.4079 -14.3184
v  -5.8289 2.6620 -14.3184
v  -6.3427 -0.9119 -14.3184
v  -4.8428 -4.1963 -14.3184
v  -1.8053 -6.1484 -14.3184
v  1.8053 -6.1484 -14.3184
v  4.8428 -4.1963 -14.3184
v  6.3427 -0.9119 -14.3184
v  5.8289 2.6620 -14.3184
v  3.4644 5.3907 -14.3184
v  -4.6761 7.2761 20.4936
v  -0.0000 8.6492 20.4936
v  -7.8676 3.5930 20.4936
v  -8.5611 -1.2309 20.4936
v  -6.5366 -5.6640 20.4936
v  -2.4367 -8.2988 20.4936
v  2.4368 -8.2988 20.4936
v  6.5366 -5.6640 20.4936
v  8.5611 -1.2309 20.4936
v  7.8676 3.5930 20.4936
v  4.6761 7.2761 20.4936
v  -0.0000 11.7509 21.4936
v  -6.3530 9.8855 21.4936
v  -6.3530 9.8855 25.7890
v  -0.0000 11.7509 25.7890
v  -10.6890 4.8815 21.4936
v  -10.6890 4.8815 25.7890
v  -11.6313 -1.6722 21.4936
v  -11.6313 -1.6722 25.7890
v  -8.8807 -7.6953 21.4936
v  -8.8807 -7.6953 25.7890
v  -3.3106 -11.2749 21.4936
v  -3.3106 -11.2749 25.7890
v  3.3106 -11.2749 21.4936
v  3.3106 -11.2749 25.7890
v  8.8808 -7.6952 21.4936
v  8.8808 -7.6952 25.7890
v  11.6313 -1.6723 21.4936
v  11.6313 -1.6723 25.7890
v  10.6890 4.8815 21.4936
v  10.6890 4.8815 25.7890
v  6.3530 9.8855 21.4936
v  6.3530 9.8855 25.7890
v  -4.6761 7.2761 26.7890
v  -0.0000 8.6492 26.7890
v  4.6761 7.2761 26.7890
v  7.8676 3.5930 26.7890
v  8.5611 -1.2309 26.7890
v  6.5366 -5.6640 26.7890
v  2.4368 -8.2988 26.7890
v  -2.4367 -8.2988 26.7890
v  -6.5366 -5.6640 26.7890
v  -8.5611 -1.2309 26.7890
v  -7.8676 3.5930 26.7890
v  -4.6761 7.2761 33.0843
v  -0.0000 8.6492 33.0843
v  -7.8676 3.5930 33.0843
v  -8.5611 -1.2309 33.0843
v  -6.5366 -5.6640 33.0843
v  -2.4367 -8.2988 33.0843
v  2.4368 -8.2988 33.0843
v  6.5366 -5.6640 33.0843
v  8.5611 -1.2309 33.0843
v  7.8676 3.5930 33.0843
v  4.6761 7.2761 33.0843
# 123 vertices

vn -0.0000 -0.0000 1.0000
vn 0.0000 0.0370 0.9993
vn -0.0200 0.0311 0.9993
vn -0.0337 0.0154 0.9993
vn -0.0366 -0.0053 0.9993
vn -0.0280 -0.0242 0.9993
vn -0.0104 -0.0355 0.9993
vn 0.0104 -0.0355 0.9993
vn 0.0280 -0.0242 0.9993
vn 0.0366 -0.0053 0.9993
vn 0.0337 0.0154 0.9993
vn 0.0200 0.0311 0.9993
vn -0.5009 0.7793 0.3765
vn -0.4260 0.6628 0.6158
vn 0.0000 0.7879 0.6158
vn 0.0000 0.9264 0.3765
vn -0.8427 0.3848 0.3765
vn -0.7167 0.3273 0.6158
vn -0.9170 -0.1318 0.3765
vn -0.7799 -0.1121 0.6158
vn -0.7001 -0.6067 0.3765
vn -0.5954 -0.5160 0.6158
vn -0.2610 -0.8889 0.3765
vn -0.2220 -0.7560 0.6158
vn 0.2610 -0.8889 0.3765
vn 0.2220 -0.7560 0.6158
vn 0.7001 -0.6067 0.3765
vn 0.5954 -0.5160 0.6158
vn 0.9170 -0.1318 0.3765
vn 0.7799 -0.1121 0.6158
vn 0.8427 0.3848 0.3765
vn 0.7167 0.3273 0.6158
vn 0.5009 0.7793 0.3765
vn 0.4260 0.6628 0.6158
vn -0.5356 0.8335 -0.1357
vn 0.0000 0.9908 -0.1357
vn -0.9012 0.4116 -0.1357
vn -0.9807 -0.1410 -0.1357
vn -0.7488 -0.6488 -0.1357
vn -0.2791 -0.9506 -0.1357
vn 0.2791 -0.9506 -0.1357
vn 0.7488 -0.6488 -0.1357
vn 0.9807 -0.1410 -0.1357
vn 0.9012 0.4116 -0.1357
vn 0.5356 0.8335 -0.1357
vn -0.4229 0.6581 -0.6229
vn 0.0000 0.7823 -0.6229
vn -0.7116 0.3250 -0.6229
vn -0.7743 -0.1113 -0.6229
vn -0.5912 -0.5123 -0.6229
vn -0.2204 -0.7506 -0.6229
vn 0.2204 -0.7506 -0.6229
vn 0.5912 -0.5123 -0.6229
vn 0.7743 -0.1113 -0.6229
vn 0.7116 0.3250 -0.6229
vn 0.4229 0.6581 -0.6229
vn -0.0000 -0.0000 -1.0000
vn -0.2365 0.3680 -0.8993
vn 0.0000 0.4374 -0.8993
vn -0.3979 0.1817 -0.8993
vn -0.4329 -0.0622 -0.8993
vn -0.3306 -0.2864 -0.8993
vn -0.1232 -0.4197 -0.8993
vn 0.1232 -0.4197 -0.8993
vn 0.3306 -0.2864 -0.8993
vn 0.4329 -0.0622 -0.8993
vn 0.3979 0.1817 -0.8993
vn 0.2365 0.3680 -0.8993
vn -0.2817 0.9595 0.0000
vn -0.7557 0.6549 0.0000
vn -0.9898 0.1423 0.0000
vn -0.9096 -0.4154 0.0000
vn -0.5406 -0.8413 0.0000
vn 0.0000 -1.0000 0.0000
vn 0.5406 -0.8413 0.0000
vn 0.9096 -0.4154 0.0000
vn 0.9898 0.1423 0.0000
vn 0.7557 0.6549 0.0000
vn 0.2817 0.9595 0.0000
vn -0.0897 0.3056 -0.9479
vn -0.2407 0.2086 -0.9479
vn -0.3153 0.0453 -0.9479
vn -0.2897 -0.1323 -0.9479
vn -0.1722 -0.2679 -0.9479
vn 0.0000 -0.3185 -0.9479
vn 0.1722 -0.2679 -0.9479
vn 0.2897 -0.1323 -0.9479
vn 0.3153 0.0453 -0.9479
vn 0.2407 0.2086 -0.9479
vn 0.0897 0.3056 -0.9479
vn -0.0897 0.3056 0.9479
vn 0.0897 0.3056 0.9479
vn 0.2407 0.2086 0.9479
vn 0.3153 0.0453 0.9479
vn 0.2897 -0.1323 0.9479
vn 0.1722 -0.2679 0.9479
vn 0.0000 -0.3185 0.9479
vn -0.1722 -0.2679 0.9479
vn -0.2897 -0.1323 0.9479
vn -0.3153 0.0453 0.9479
vn -0.2407 0.2086 0.9479
# 101 vertex normals

vt 0.3730 0.7732 0.0000
vt 0.3730 0.6839 0.0000
vt 0.4213 0.6981 0.0000
vt 0.4542 0.7361 0.0000
vt 0.4614 0.7859 0.0000
vt 0.4405 0.8316 0.0000
vt 0.3982 0.8588 0.0000
vt 0.3479 0.8588 0.0000
vt 0.3056 0.8316 0.0000
vt 0.2847 0.7859 0.0000
vt 0.2918 0.7361 0.0000
vt 0.3248 0.6981 0.0000
vt 0.1760 0.2646 -0.2293
vt 0.1768 0.3991 0.1815
vt 0.1185 0.3993 0.1446
vt 0.1185 0.2646 -0.2813
vt 0.2336 0.2643 -0.1651
vt 0.2350 0.3982 0.2274
vt 0.2911 0.2635 -0.0916
vt 0.2925 0.3965 0.2807
vt 0.3476 0.2624 -0.0112
vt 0.3487 0.3946 0.3404
vt 0.4031 0.2616 0.0748
vt 0.4035 0.3933 0.4064
vt 0.4581 0.2616 0.1664
vt 0.4577 0.3933 0.4795
vt 0.5136 0.2624 0.2641
vt 0.5125 0.3946 0.5603
vt 0.5701 0.2635 0.3675
vt 0.5686 0.3965 0.6484
vt 0.6276 0.2643 -0.3409
vt 0.6262 0.3982 0.1020
vt 0.0610 0.2646 -0.3190
vt 0.0602 0.3991 0.1180
vt 0.0020 0.3982 0.1020
vt 0.0034 0.2643 -0.3409
vt 0.1759 0.1209 -0.4914
vt 0.1185 0.1208 -0.5630
vt 0.2335 0.1211 -0.4062
vt 0.2909 0.1217 -0.3112
vt 0.3475 0.1225 -0.2106
vt 0.4031 0.1231 -0.1074
vt 0.4581 0.1231 -0.0021
vt 0.5137 0.1225 0.1062
vt 0.5703 0.1217 0.2187
vt 0.6277 0.1211 -0.6484
vt 0.0611 0.1209 -0.6170
vt 0.0036 0.1211 -0.6484
vt 0.1763 0.0021 -0.3671
vt 0.1185 0.0020 -0.4283
vt 0.2341 0.0027 -0.2923
vt 0.2915 0.0040 -0.2074
vt 0.3479 0.0057 -0.1160
vt 0.4032 0.0069 -0.0211
vt 0.4580 0.0069 0.0768
vt 0.5132 0.0057 0.1786
vt 0.5697 0.0040 0.2854
vt 0.6271 0.0027 -0.4981
vt 0.0608 0.0021 -0.4730
vt 0.0030 0.0027 -0.4981
vt 0.1356 0.5443 0.0000
vt 0.1743 0.6045 0.0000
vt 0.1356 0.6158 0.0000
vt 0.2007 0.5740 0.0000
vt 0.2064 0.5341 0.0000
vt 0.1897 0.4974 0.0000
vt 0.1558 0.4756 0.0000
vt 0.1155 0.4756 0.0000
vt 0.0815 0.4974 0.0000
vt 0.0648 0.5341 0.0000
vt 0.0705 0.5740 0.0000
vt 0.0969 0.6045 0.0000
vt 0.7589 0.6063 0.0000
vt 0.7081 0.6063 0.0000
vt 0.7081 0.5379 0.0000
vt 0.7589 0.5379 0.0000
vt 0.6680 0.6063 0.0000
vt 0.6680 0.5379 0.0000
vt 0.6156 0.6063 0.0000
vt 0.6156 0.5379 0.0000
vt 0.5674 0.6063 0.0000
vt 0.5674 0.5379 0.0000
vt 0.5228 0.6063 0.0000
vt 0.5228 0.5379 0.0000
vt 0.4699 0.6063 0.0000
vt 0.4699 0.5379 0.0000
vt 0.4253 0.6063 0.0000
vt 0.4253 0.5379 0.0000
vt 0.3771 0.6063 0.0000
vt 0.3771 0.5379 0.0000
vt 0.3247 0.6063 0.0000
vt 0.3247 0.5379 0.0000
vt 0.2847 0.6063 0.0000
vt 0.2847 0.5379 0.0000
vt 0.8097 0.6063 0.0000
vt 0.8097 0.5379 0.0000
vt 0.3537 0.6685 0.0000
vt 0.2847 0.6685 0.0000
vt 0.2847 0.6218 0.0000
vt 0.3537 0.6218 0.0000
vt 0.9980 0.6685 0.0000
vt 0.9436 0.6685 0.0000
vt 0.9436 0.6218 0.0000
vt 0.9980 0.6218 0.0000
vt 0.8724 0.6685 0.0000
vt 0.8724 0.6218 0.0000
vt 0.8069 0.6685 0.0000
vt 0.8069 0.6218 0.0000
vt 0.7464 0.6685 0.0000
vt 0.7464 0.6218 0.0000
vt 0.6744 0.6685 0.0000
vt 0.6744 0.6218 0.0000
vt 0.6139 0.6685 0.0000
vt 0.6139 0.6218 0.0000
vt 0.5484 0.6685 0.0000
vt 0.5484 0.6218 0.0000
vt 0.4772 0.6685 0.0000
vt 0.4772 0.6218 0.0000
vt 0.4228 0.6685 0.0000
vt 0.4228 0.6218 0.0000
vt 0.7664 0.2131 0.0000
vt 0.8160 0.1986 0.0000
vt 0.8337 0.2262 0.0000
vt 0.7664 0.2460 0.0000
vt 0.8498 0.1596 0.0000
vt 0.8797 0.1732 0.0000
vt 0.8571 0.1084 0.0000
vt 0.8897 0.1038 0.0000
vt 0.8357 0.0615 0.0000
vt 0.8605 0.0399 0.0000
vt 0.7922 0.0335 0.0000
vt 0.8015 0.0020 0.0000
vt 0.7406 0.0335 0.0000
vt 0.7313 0.0020 0.0000
vt 0.6972 0.0615 0.0000
vt 0.6723 0.0399 0.0000
vt 0.6757 0.1084 0.0000
vt 0.6432 0.1038 0.0000
vt 0.6830 0.1596 0.0000
vt 0.6531 0.1732 0.0000
vt 0.7169 0.1986 0.0000
vt 0.6991 0.2262 0.0000
vt 0.1748 0.7421 0.0000
vt 0.1253 0.7276 0.0000
vt 0.1253 0.6947 0.0000
vt 0.1926 0.7145 0.0000
vt 0.0757 0.7421 0.0000
vt 0.0579 0.7145 0.0000
vt 0.0419 0.7812 0.0000
vt 0.0120 0.7675 0.0000
vt 0.0345 0.8323 0.0000
vt 0.0020 0.8370 0.0000
vt 0.0560 0.8793 0.0000
vt 0.0311 0.9008 0.0000
vt 0.0994 0.9072 0.0000
vt 0.0902 0.9387 0.0000
vt 0.1511 0.9072 0.0000
vt 0.1603 0.9387 0.0000
vt 0.1945 0.8793 0.0000
vt 0.2194 0.9008 0.0000
vt 0.2160 0.8323 0.0000
vt 0.2485 0.8370 0.0000
vt 0.2086 0.7812 0.0000
vt 0.2385 0.7675 0.0000
vt 0.4762 0.5211 0.0000
vt 0.4254 0.5211 0.0000
vt 0.4254 0.4527 0.0000
vt 0.4762 0.4527 0.0000
vt 0.4254 0.4154 0.0000
vt 0.4762 0.4148 0.0000
vt 0.3853 0.5225 0.0000
vt 0.3853 0.4540 0.0000
vt 0.3853 0.4161 0.0000
vt 0.3329 0.5225 0.0000
vt 0.3329 0.4540 0.0000
vt 0.3329 0.4161 0.0000
vt 0.2847 0.5225 0.0000
vt 0.2847 0.4540 0.0000
vt 0.2847 0.4161 0.0000
vt 0.8100 0.5225 0.0000
vt 0.7654 0.5225 0.0000
vt 0.7654 0.4540 0.0000
vt 0.8100 0.4540 0.0000
vt 0.7654 0.4161 0.0000
vt 0.8100 0.4161 0.0000
vt 0.7124 0.5225 0.0000
vt 0.7124 0.4540 0.0000
vt 0.7124 0.4161 0.0000
vt 0.6678 0.5225 0.0000
vt 0.6678 0.4540 0.0000
vt 0.6678 0.4161 0.0000
vt 0.6196 0.5225 0.0000
vt 0.6196 0.4540 0.0000
vt 0.6196 0.4161 0.0000
vt 0.5671 0.5225 0.0000
vt 0.5671 0.4540 0.0000
vt 0.5671 0.4161 0.0000
vt 0.5271 0.5211 0.0000
vt 0.5271 0.4527 0.0000
vt 0.5271 0.4154 0.0000
vt 0.1356 0.6793 0.0000
vt 0.2086 0.6578 0.0000
vt 0.2584 0.6004 0.0000
vt 0.2692 0.5251 0.0000
vt 0.2376 0.4559 0.0000
vt 0.1736 0.4148 0.0000
vt 0.0976 0.4148 0.0000
vt 0.0336 0.4559 0.0000
vt 0.0020 0.5251 0.0000
vt 0.0128 0.6004 0.0000
vt 0.0626 0.6578 0.0000
# 211 texture coords

g Sphere001
usemtl Material__109
s 1
f 1/1/1 2/2/2 3/3/3 
f 1/1/1 3/3/3 4/4/4 
f 1/1/1 4/4/4 5/5/5 
f 1/1/1 5/5/5 6/6/6 
f 1/1/1 6/6/6 7/7/7 
f 1/1/1 7/7/7 8/8/8 
f 1/1/1 8/8/8 9/9/9 
f 1/1/1 9/9/9 10/10/10 
f 1/1/1 10/10/10 11/11/11 
f 1/1/1 11/11/11 12/12/12 
f 1/1/1 12/12/12 2/2/2 
f 13/13/13 14/14/14 15/15/15 16/16/16 
f 17/17/17 18/18/18 14/14/14 13/13/13 
f 19/19/19 20/20/20 18/18/18 17/17/17 
f 21/21/21 22/22/22 20/20/20 19/19/19 
f 23/23/23 24/24/24 22/22/22 21/21/21 
f 25/25/25 26/26/26 24/24/24 23/23/23 
f 27/27/27 28/28/28 26/26/26 25/25/25 
f 29/29/29 30/30/30 28/28/28 27/27/27 
f 31/31/31 32/32/32 30/30/30 29/29/29 
f 33/33/33 34/34/34 32/35/32 31/36/31 
f 16/16/16 15/15/15 34/34/34 33/33/33 
f 35/37/35 13/13/13 16/16/16 36/38/36 
f 37/39/37 17/17/17 13/13/13 35/37/35 
f 38/40/38 19/19/19 17/17/17 37/39/37 
f 39/41/39 21/21/21 19/19/19 38/40/38 
f 40/42/40 23/23/23 21/21/21 39/41/39 
f 41/43/41 25/25/25 23/23/23 40/42/40 
f 42/44/42 27/27/27 25/25/25 41/43/41 
f 43/45/43 29/29/29 27/27/27 42/44/42 
f 44/46/44 31/31/31 29/29/29 43/45/43 
f 45/47/45 33/33/33 31/36/31 44/48/44 
f 36/38/36 16/16/16 33/33/33 45/47/45 
f 46/49/46 35/37/35 36/38/36 47/50/47 
f 48/51/48 37/39/37 35/37/35 46/49/46 
f 49/52/49 38/40/38 37/39/37 48/51/48 
f 50/53/50 39/41/39 38/40/38 49/52/49 
f 51/54/51 40/42/40 39/41/39 50/53/50 
f 52/55/52 41/43/41 40/42/40 51/54/51 
f 53/56/53 42/44/42 41/43/41 52/55/52 
f 54/57/54 43/45/43 42/44/42 53/56/53 
f 55/58/55 44/46/44 43/45/43 54/57/54 
f 56/59/56 45/47/45 44/48/44 55/60/55 
f 47/50/47 36/38/36 45/47/45 56/59/56 
f 57/61/57 58/62/58 59/63/59 
f 57/61/57 60/64/60 58/62/58 
f 57/61/57 61/65/61 60/64/60 
f 57/61/57 62/66/62 61/65/61 
f 57/61/57 63/67/63 62/66/62 
f 57/61/57 64/68/64 63/67/63 
f 57/61/57 65/69/65 64/68/64 
f 57/61/57 66/70/66 65/69/65 
f 57/61/57 67/71/67 66/70/66 
f 57/61/57 68/72/68 67/71/67 
f 57/61/57 59/63/59 68/72/68 
s off
f 15/73/69 14/74/69 69/75/69 70/76/69 
f 14/74/70 18/77/70 71/78/70 69/75/70 
f 18/77/71 20/79/71 72/80/71 71/78/71 
f 20/79/72 22/81/72 73/82/72 72/80/72 
f 22/81/73 24/83/73 74/84/73 73/82/73 
f 24/83/74 26/85/74 75/86/74 74/84/74 
f 26/85/75 28/87/75 76/88/75 75/86/75 
f 28/87/76 30/89/76 77/90/76 76/88/76 
f 30/89/77 32/91/77 78/92/77 77/90/77 
f 32/91/78 34/93/78 79/94/78 78/92/78 
f 34/95/79 15/73/79 70/76/79 79/96/79 
f 80/97/69 81/98/69 82/99/69 83/100/69 
f 81/101/70 84/102/70 85/103/70 82/104/70 
f 84/102/71 86/105/71 87/106/71 85/103/71 
f 86/105/72 88/107/72 89/108/72 87/106/72 
f 88/107/73 90/109/73 91/110/73 89/108/73 
f 90/109/74 92/111/74 93/112/74 91/110/74 
f 92/111/75 94/113/75 95/114/75 93/112/75 
f 94/113/76 96/115/76 97/116/76 95/114/76 
f 96/115/77 98/117/77 99/118/77 97/116/77 
f 98/117/78 100/119/78 101/120/78 99/118/78 
f 100/119/79 80/97/79 83/100/79 101/120/79 
f 70/121/80 69/122/80 81/123/80 80/124/80 
f 69/122/81 71/125/81 84/126/81 81/123/81 
f 71/125/82 72/127/82 86/128/82 84/126/82 
f 72/127/83 73/129/83 88/130/83 86/128/83 
f 73/129/84 74/131/84 90/132/84 88/130/84 
f 74/131/85 75/133/85 92/134/85 90/132/85 
f 75/133/86 76/135/86 94/136/86 92/134/86 
f 76/135/87 77/137/87 96/138/87 94/136/87 
f 77/137/88 78/139/88 98/140/88 96/138/88 
f 78/139/89 79/141/89 100/142/89 98/140/89 
f 79/141/90 70/121/90 80/124/90 100/142/90 
f 102/143/91 103/144/91 83/145/91 82/146/91 
f 103/144/92 104/147/92 101/148/92 83/145/92 
f 104/147/93 105/149/93 99/150/93 101/148/93 
f 105/149/94 106/151/94 97/152/94 99/150/94 
f 106/151/95 107/153/95 95/154/95 97/152/95 
f 107/153/96 108/155/96 93/156/96 95/154/96 
f 108/155/97 109/157/97 91/158/97 93/156/97 
f 109/157/98 110/159/98 89/160/98 91/158/98 
f 110/159/99 111/161/99 87/162/99 89/160/99 
f 111/161/100 112/163/100 85/164/100 87/162/100 
f 112/163/101 102/143/101 82/146/101 85/164/101 
f 103/165/69 102/166/69 113/167/69 114/168/69 
f 114/168/69 113/167/69 3/169/69 2/170/69 
f 102/166/70 112/171/70 115/172/70 113/167/70 
f 113/167/70 115/172/70 4/173/70 3/169/70 
f 112/171/71 111/174/71 116/175/71 115/172/71 
f 115/172/71 116/175/71 5/176/71 4/173/71 
f 111/174/72 110/177/72 117/178/72 116/175/72 
f 116/175/72 117/178/72 6/179/72 5/176/72 
f 110/180/73 109/181/73 118/182/73 117/183/73 
f 117/183/73 118/182/73 7/184/73 6/185/73 
f 109/181/74 108/186/74 119/187/74 118/182/74 
f 118/182/74 119/187/74 8/188/74 7/184/74 
f 108/186/75 107/189/75 120/190/75 119/187/75 
f 119/187/75 120/190/75 9/191/75 8/188/75 
f 107/189/76 106/192/76 121/193/76 120/190/76 
f 120/190/76 121/193/76 10/194/76 9/191/76 
f 106/192/77 105/195/77 122/196/77 121/193/77 
f 121/193/77 122/196/77 11/197/77 10/194/77 
f 105/195/78 104/198/78 123/199/78 122/196/78 
f 122/196/78 123/199/78 12/200/78 11/197/78 
f 104/198/79 103/165/79 114/168/79 123/199/79 
f 123/199/79 114/168/79 2/170/79 12/200/79 
s 1
f 47/201/47 59/63/59 58/62/58 46/202/46 
f 48/203/48 46/202/46 58/62/58 60/64/60 
f 49/204/49 48/203/48 60/64/60 61/65/61 
f 50/205/50 49/204/49 61/65/61 62/66/62 
f 51/206/51 50/205/50 62/66/62 63/67/63 
f 52/207/52 51/206/51 63/67/63 64/68/64 
f 53/208/53 52/207/52 64/68/64 65/69/65 
f 54/209/54 53/208/53 65/69/65 66/70/66 
f 55/210/55 54/209/54 66/70/66 67/71/67 
f 56/211/56 55/210/55 67/71/67 68/72/68 
f 56/211/56 68/72/68 59/63/59 47/201/47 
# 110 polygons - 22 triangles

