# Blender v2.74 (sub 0) OBJ File: 'Stadium 1.blend'
# www.blender.org
o Collider_Plane.001
v -30.000000 -4.000000 -28.000000
v -30.000000 12.000000 -28.000000
v 28.000000 -4.000000 28.000000
v 28.000000 12.000000 28.000000
v -28.000000 -4.000000 -28.000000
v -28.000000 12.000000 -28.000000
v -28.000000 -4.000000 -30.000000
v -28.000000 12.000000 -30.000000
v 28.000000 -4.000000 -28.000000
v 28.000000 12.000000 -28.000000
v 28.000000 -4.000000 -30.000000
v 28.000000 12.000000 -30.000000
v -30.000000 -4.000000 28.000000
v -30.000000 12.000000 28.000000
v -28.000000 -4.000000 28.000000
v -28.000000 12.000000 28.000000
v -28.000000 -4.000000 -28.000000
v -28.000000 12.000000 -28.000000
v -28.000000 -4.000000 30.000000
v -28.000000 12.000000 30.000000
v 28.000000 -4.000000 28.000000
v 28.000000 12.000000 28.000000
v 28.000000 -4.000000 30.000000
v 28.000000 12.000000 30.000000
v 30.000000 -4.000000 28.000000
v 30.000000 12.000000 28.000000
v -28.000000 -4.000000 28.000000
v -28.000000 12.000000 28.000000
v 30.000000 -4.000000 -28.000000
v 30.000000 12.000000 -28.000000
v 28.000000 -4.000000 -28.000000
v 28.000000 12.000000 -28.000000
v -14.666666 0.000000 20.000000
v 14.666667 0.000000 20.000000
v 14.666666 0.000000 -20.000000
v -14.666667 0.000000 -20.000000
v 14.666666 -4.000000 -20.000000
v -14.666667 -4.000000 -20.000000
v -14.666666 -4.000000 20.000000
v 14.666667 -4.000000 20.000000
v -20.000000 0.000000 -14.666666
v -20.000000 0.000000 14.666667
v 20.000000 0.000000 14.666666
v 20.000000 0.000000 -14.666667
v -20.000000 -4.000000 -14.666666
v -20.000000 -4.000000 14.666667
v 20.000000 -4.000000 14.666666
v 20.000000 -4.000000 -14.666667
v -14.666666 -4.000000 -14.666666
v -14.666666 -4.000000 14.666667
v 14.666666 -4.000000 -14.666666
v 14.666667 -4.000000 14.666667
v -14.666666 0.000000 14.666666
v -14.666667 0.000000 -14.666667
v 14.666666 0.000000 14.666666
v 14.666666 0.000000 -14.666667
vn 0.000000 -1.000000 0.000000
vn 0.000000 0.000000 1.000000
vn 0.000000 1.000000 0.000000
vn 0.000000 0.000000 -1.000000
vn 1.000000 0.000000 0.000000
vn -1.000000 0.000000 0.000000
vn -0.707100 0.000000 0.707100
vn 0.707100 0.000000 0.707100
vn 0.707100 0.000000 -0.707100
vn -0.707100 0.000000 -0.707100
s off
f 5//1 7//1 11//1 9//1
f 1//1 17//1 15//1 13//1
f 25//2 26//2 4//2 3//2
f 6//2 5//2 9//2 10//2
f 8//3 6//3 10//3 12//3
f 7//4 8//4 12//4 11//4
f 18//3 2//3 14//3 16//3
f 17//5 18//5 16//5 15//5
f 2//6 1//6 13//6 14//6
f 28//3 20//3 24//3 22//3
f 19//1 27//1 21//1 23//1
f 20//2 19//2 23//2 24//2
f 27//4 28//4 22//4 21//4
f 19//6 20//6 28//6 27//6
f 21//5 22//5 24//5 23//5
f 13//2 15//2 16//2 14//2
f 25//1 3//1 31//1 29//1
f 4//3 26//3 30//3 32//3
f 26//5 25//5 29//5 30//5
f 3//6 4//6 32//6 31//6
f 40//1 52//1 47//1
f 46//7 39//7 33//7 42//7
f 39//1 46//1 50//1
f 48//1 51//1 37//1
f 43//8 34//8 40//8 47//8
f 1//4 2//4 18//4 17//4
f 7//6 5//6 6//6 8//6
f 11//5 12//5 10//5 9//5
f 29//4 31//4 32//4 30//4
f 35//3 56//3 44//3
f 36//4 35//4 37//4 38//4
f 42//3 33//3 53//3
f 49//1 38//1 37//1 51//1
f 34//2 33//2 39//2 40//2
f 48//9 37//9 35//9 44//9
f 54//3 56//3 35//3 36//3
f 33//3 34//3 55//3 53//3
f 53//3 55//3 56//3 54//3
f 42//3 53//3 54//3 41//3
f 39//1 50//1 52//1 40//1
f 50//1 49//1 51//1 52//1
f 45//10 41//10 36//10 38//10
f 46//1 45//1 49//1 50//1
f 42//6 41//6 45//6 46//6
f 43//3 55//3 34//3
f 44//5 43//5 47//5 48//5
f 36//3 41//3 54//3
f 52//1 51//1 48//1 47//1
f 45//1 38//1 49//1
f 55//3 43//3 44//3 56//3
